# MagicaVoxel @ Ephtracy

# group
o 

# material
mtllib wall_pillar_top.mtl
usemtl palette

# normals
vn -1 0 0
vn 1 0 0
vn 0 0 1
vn 0 0 -1
vn 0 -1 0
vn 0 1 0

# texcoords
vt 0.107422 0.5
vt 0.123047 0.5
vt 0.439453 0.5
vt 0.451172 0.5
vt 0.466797 0.5

# verts
v -0.5 -0.2 0.4
v -0.5 -0.2 0.3
v -0.5 -0.2 -0.1
v -0.5 -0.2 -0.4
v -0.5 -0.1 0.5
v -0.5 -0.1 0.4
v -0.5 -0.1 0.3
v -0.5 -0.1 -0.1
v -0.5 -0.1 -0.4
v -0.5 -0.1 -0.5
v -0.5 0 0.5
v -0.5 0 0.3
v -0.5 0 -0.1
v -0.5 0 -0.5
v -0.4 -0.5 0.3
v -0.4 -0.5 0.2
v -0.4 -0.5 0.1
v -0.4 -0.5 0
v -0.4 -0.5 -0.1
v -0.4 -0.5 -0.2
v -0.4 -0.5 -0.3
v -0.4 -0.2 0.5
v -0.4 -0.2 0.4
v -0.4 -0.2 0.3
v -0.4 -0.2 0.2
v -0.4 -0.2 0.1
v -0.4 -0.2 0
v -0.4 -0.2 -0.1
v -0.4 -0.2 -0.2
v -0.4 -0.2 -0.3
v -0.4 -0.2 -0.4
v -0.4 -0.2 -0.5
v -0.4 -0.1 0.5
v -0.4 -0.1 0.4
v -0.4 -0.1 -0.4
v -0.4 -0.1 -0.5
v -0.3 -0.5 0.4
v -0.3 -0.5 0.3
v -0.3 -0.5 -0.3
v -0.3 -0.5 -0.4
v -0.3 -0.2 0.4
v -0.3 -0.2 0.3
v -0.3 -0.2 -0.3
v -0.3 -0.2 -0.4
v 0.3 -0.5 0.4
v 0.3 -0.5 0.3
v 0.3 -0.5 -0.3
v 0.3 -0.5 -0.4
v 0.3 -0.2 0.4
v 0.3 -0.2 0.3
v 0.3 -0.2 -0.3
v 0.3 -0.2 -0.4
v 0.4 -0.5 0.3
v 0.4 -0.5 0.2
v 0.4 -0.5 0.1
v 0.4 -0.5 0
v 0.4 -0.5 -0.1
v 0.4 -0.5 -0.2
v 0.4 -0.5 -0.3
v 0.4 -0.2 0.5
v 0.4 -0.2 0.4
v 0.4 -0.2 0.3
v 0.4 -0.2 0.2
v 0.4 -0.2 0.1
v 0.4 -0.2 0
v 0.4 -0.2 -0.1
v 0.4 -0.2 -0.2
v 0.4 -0.2 -0.3
v 0.4 -0.2 -0.4
v 0.4 -0.2 -0.5
v 0.4 -0.1 0.5
v 0.4 -0.1 0.4
v 0.4 -0.1 -0.4
v 0.4 -0.1 -0.5
v 0.5 -0.2 0.4
v 0.5 -0.2 0.3
v 0.5 -0.2 -0.1
v 0.5 -0.2 -0.3
v 0.5 -0.2 -0.4
v 0.5 -0.1 0.5
v 0.5 -0.1 0.4
v 0.5 -0.1 0.3
v 0.5 -0.1 -0.1
v 0.5 -0.1 -0.3
v 0.5 -0.1 -0.4
v 0.5 -0.1 -0.5
v 0.5 0 0.5
v 0.5 0 -0.4
v 0.5 0 -0.5
v -0.5 -0.1 0.5
v -0.5 0 0.5
v -0.4 -0.2 0.5
v -0.4 -0.1 0.5
v 0.1 -0.2 0.5
v 0.1 -0.1 0.5
v 0.2 -0.1 0.5
v 0.2 0 0.5
v 0.4 -0.2 0.5
v 0.4 -0.1 0.5
v 0.4 0 0.5
v 0.5 -0.1 0.5
v 0.5 0 0.5
v -0.5 -0.2 0.4
v -0.5 -0.1 0.4
v -0.4 -0.2 0.4
v -0.4 -0.1 0.4
v -0.3 -0.5 0.4
v -0.3 -0.2 0.4
v -0.2 -0.5 0.4
v -0.2 -0.2 0.4
v -0.1 -0.5 0.4
v -0.1 -0.2 0.4
v 0 -0.5 0.4
v 0 -0.2 0.4
v 0.1 -0.5 0.4
v 0.1 -0.2 0.4
v 0.2 -0.5 0.4
v 0.2 -0.2 0.4
v 0.3 -0.5 0.4
v 0.3 -0.2 0.4
v 0.4 -0.2 0.4
v 0.4 -0.1 0.4
v 0.5 -0.2 0.4
v 0.5 -0.1 0.4
v -0.4 -0.5 0.3
v -0.4 -0.2 0.3
v -0.3 -0.5 0.3
v -0.3 -0.2 0.3
v 0.3 -0.5 0.3
v 0.3 -0.2 0.3
v 0.4 -0.5 0.3
v 0.4 -0.2 0.3
v -0.4 -0.5 -0.3
v -0.4 -0.2 -0.3
v -0.3 -0.5 -0.3
v -0.3 -0.2 -0.3
v 0.3 -0.5 -0.3
v 0.3 -0.2 -0.3
v 0.4 -0.5 -0.3
v 0.4 -0.2 -0.3
v -0.5 -0.2 -0.4
v -0.5 -0.1 -0.4
v -0.4 -0.2 -0.4
v -0.4 -0.1 -0.4
v -0.3 -0.5 -0.4
v -0.3 -0.2 -0.4
v -0.2 -0.5 -0.4
v -0.2 -0.2 -0.4
v -0.1 -0.5 -0.4
v -0.1 -0.2 -0.4
v 0 -0.5 -0.4
v 0 -0.2 -0.4
v 0.1 -0.5 -0.4
v 0.1 -0.2 -0.4
v 0.2 -0.5 -0.4
v 0.2 -0.2 -0.4
v 0.3 -0.5 -0.4
v 0.3 -0.2 -0.4
v 0.4 -0.2 -0.4
v 0.4 -0.1 -0.4
v 0.5 -0.2 -0.4
v 0.5 -0.1 -0.4
v -0.5 -0.1 -0.5
v -0.5 0 -0.5
v -0.4 -0.2 -0.5
v -0.4 -0.1 -0.5
v -0.3 -0.2 -0.5
v -0.3 -0.1 -0.5
v 0.1 -0.1 -0.5
v 0.1 0 -0.5
v 0.2 -0.1 -0.5
v 0.2 0 -0.5
v 0.3 -0.2 -0.5
v 0.3 -0.1 -0.5
v 0.4 -0.2 -0.5
v 0.4 -0.1 -0.5
v 0.4 0 -0.5
v 0.5 -0.1 -0.5
v 0.5 0 -0.5
v -0.3 -0.5 0.4
v -0.2 -0.5 0.4
v -0.1 -0.5 0.4
v 0 -0.5 0.4
v 0.1 -0.5 0.4
v 0.2 -0.5 0.4
v 0.3 -0.5 0.4
v -0.4 -0.5 0.3
v -0.3 -0.5 0.3
v -0.2 -0.5 0.3
v -0.1 -0.5 0.3
v 0 -0.5 0.3
v 0.1 -0.5 0.3
v 0.2 -0.5 0.3
v 0.3 -0.5 0.3
v 0.4 -0.5 0.3
v -0.4 -0.5 0.2
v -0.3 -0.5 0.2
v 0.3 -0.5 0.2
v 0.4 -0.5 0.2
v -0.4 -0.5 0.1
v -0.3 -0.5 0.1
v 0.3 -0.5 0.1
v 0.4 -0.5 0.1
v -0.4 -0.5 0
v -0.3 -0.5 0
v 0.3 -0.5 0
v 0.4 -0.5 0
v -0.4 -0.5 -0.1
v -0.3 -0.5 -0.1
v 0.3 -0.5 -0.1
v 0.4 -0.5 -0.1
v -0.4 -0.5 -0.2
v -0.3 -0.5 -0.2
v 0.3 -0.5 -0.2
v 0.4 -0.5 -0.2
v -0.4 -0.5 -0.3
v -0.3 -0.5 -0.3
v -0.2 -0.5 -0.3
v -0.1 -0.5 -0.3
v 0 -0.5 -0.3
v 0.1 -0.5 -0.3
v 0.2 -0.5 -0.3
v 0.3 -0.5 -0.3
v 0.4 -0.5 -0.3
v -0.3 -0.5 -0.4
v -0.2 -0.5 -0.4
v -0.1 -0.5 -0.4
v 0 -0.5 -0.4
v 0.1 -0.5 -0.4
v 0.2 -0.5 -0.4
v 0.3 -0.5 -0.4
v -0.4 -0.2 0.5
v 0.1 -0.2 0.5
v 0.4 -0.2 0.5
v -0.5 -0.2 0.4
v -0.4 -0.2 0.4
v -0.3 -0.2 0.4
v -0.2 -0.2 0.4
v -0.1 -0.2 0.4
v 0 -0.2 0.4
v 0.1 -0.2 0.4
v 0.2 -0.2 0.4
v 0.3 -0.2 0.4
v 0.4 -0.2 0.4
v 0.5 -0.2 0.4
v -0.5 -0.2 0.3
v -0.4 -0.2 0.3
v -0.3 -0.2 0.3
v 0.3 -0.2 0.3
v 0.4 -0.2 0.3
v 0.5 -0.2 0.3
v -0.4 -0.2 0.2
v 0.4 -0.2 0.2
v -0.4 -0.2 0.1
v 0.4 -0.2 0.1
v -0.4 -0.2 0
v 0.4 -0.2 0
v -0.5 -0.2 -0.1
v -0.4 -0.2 -0.1
v 0.4 -0.2 -0.1
v 0.5 -0.2 -0.1
v -0.4 -0.2 -0.2
v 0.4 -0.2 -0.2
v -0.4 -0.2 -0.3
v -0.3 -0.2 -0.3
v 0.3 -0.2 -0.3
v 0.4 -0.2 -0.3
v 0.5 -0.2 -0.3
v -0.5 -0.2 -0.4
v -0.4 -0.2 -0.4
v -0.3 -0.2 -0.4
v -0.2 -0.2 -0.4
v -0.1 -0.2 -0.4
v 0 -0.2 -0.4
v 0.1 -0.2 -0.4
v 0.2 -0.2 -0.4
v 0.3 -0.2 -0.4
v 0.4 -0.2 -0.4
v 0.5 -0.2 -0.4
v -0.4 -0.2 -0.5
v -0.3 -0.2 -0.5
v 0.3 -0.2 -0.5
v 0.4 -0.2 -0.5
v -0.5 -0.1 0.5
v -0.4 -0.1 0.5
v 0.4 -0.1 0.5
v 0.5 -0.1 0.5
v -0.5 -0.1 0.4
v -0.4 -0.1 0.4
v 0.4 -0.1 0.4
v 0.5 -0.1 0.4
v -0.5 -0.1 -0.4
v -0.4 -0.1 -0.4
v 0.4 -0.1 -0.4
v 0.5 -0.1 -0.4
v -0.5 -0.1 -0.5
v -0.4 -0.1 -0.5
v 0.4 -0.1 -0.5
v 0.5 -0.1 -0.5
v -0.5 0 0.5
v 0.2 0 0.5
v 0.4 0 0.5
v 0.5 0 0.5
v -0.4 0 0.4
v -0.3 0 0.4
v -0.2 0 0.4
v 0 0 0.4
v 0.2 0 0.4
v 0.4 0 0.4
v -0.5 0 0.3
v -0.4 0 0.3
v -0.3 0 0.3
v -0.2 0 0.3
v 0 0 0.3
v 0.4 0 0.3
v -0.1 0 0.2
v 0 0 0.2
v 0.1 0 0.2
v 0.3 0 0.2
v 0.4 0 0.2
v -0.2 0 0.1
v -0.1 0 0.1
v 0 0 0.1
v 0.1 0 0.1
v 0.3 0 0.1
v -0.3 0 0
v -0.2 0 0
v -0.1 0 0
v 0.1 0 0
v 0.2 0 0
v 0.3 0 0
v 0.4 0 0
v -0.5 0 -0.1
v -0.4 0 -0.1
v -0.3 0 -0.1
v -0.2 0 -0.1
v 0.1 0 -0.1
v 0.2 0 -0.1
v -0.3 0 -0.2
v -0.2 0 -0.2
v 0.2 0 -0.2
v 0.3 0 -0.2
v -0.3 0 -0.3
v -0.2 0 -0.3
v 0.2 0 -0.3
v 0.4 0 -0.3
v -0.4 0 -0.4
v -0.3 0 -0.4
v 0.1 0 -0.4
v 0.2 0 -0.4
v 0.4 0 -0.4
v 0.5 0 -0.4
v -0.5 0 -0.5
v 0.1 0 -0.5
v 0.2 0 -0.5
v 0.4 0 -0.5
v 0.5 0 -0.5

# faces
f 6/3/1 2/3/1 1/3/1
f 7/4/1 3/4/1 2/4/1
f 7/3/1 2/3/1 6/3/1
f 8/3/1 4/3/1 3/3/1
f 8/4/1 3/4/1 7/4/1
f 9/3/1 4/3/1 8/3/1
f 11/4/1 7/4/1 6/4/1
f 11/4/1 6/4/1 5/4/1
f 12/5/1 8/5/1 7/5/1
f 12/4/1 7/4/1 11/4/1
f 13/4/1 10/4/1 9/4/1
f 13/5/1 8/5/1 12/5/1
f 13/4/1 9/4/1 8/4/1
f 14/4/1 10/4/1 13/4/1
f 24/1/1 16/1/1 15/1/1
f 25/2/1 17/2/1 16/2/1
f 25/1/1 16/1/1 24/1/1
f 26/1/1 18/1/1 17/1/1
f 26/2/1 17/2/1 25/2/1
f 27/2/1 19/2/1 18/2/1
f 27/1/1 18/1/1 26/1/1
f 28/1/1 20/1/1 19/1/1
f 28/2/1 19/2/1 27/2/1
f 29/2/1 21/2/1 20/2/1
f 29/1/1 20/1/1 28/1/1
f 30/2/1 21/2/1 29/2/1
f 33/3/1 23/3/1 22/3/1
f 34/3/1 23/3/1 33/3/1
f 35/3/1 32/3/1 31/3/1
f 36/3/1 32/3/1 35/3/1
f 41/2/1 38/2/1 37/2/1
f 42/2/1 38/2/1 41/2/1
f 43/1/1 40/1/1 39/1/1
f 44/1/1 40/1/1 43/1/1
f 45/1/2 46/1/2 49/1/2
f 49/1/2 46/1/2 50/1/2
f 47/2/2 48/2/2 51/2/2
f 51/2/2 48/2/2 52/2/2
f 53/2/2 54/2/2 62/2/2
f 54/1/2 55/1/2 63/1/2
f 62/2/2 54/2/2 63/2/2
f 55/2/2 56/2/2 64/2/2
f 63/1/2 55/1/2 64/1/2
f 56/1/2 57/1/2 65/1/2
f 64/2/2 56/2/2 65/2/2
f 57/2/2 58/2/2 66/2/2
f 65/1/2 57/1/2 66/1/2
f 58/1/2 59/1/2 67/1/2
f 66/2/2 58/2/2 67/2/2
f 67/1/2 59/1/2 68/1/2
f 60/4/2 61/4/2 71/4/2
f 71/4/2 61/4/2 72/4/2
f 69/3/2 70/3/2 73/3/2
f 73/3/2 70/3/2 74/3/2
f 75/4/2 76/4/2 81/4/2
f 76/3/2 77/3/2 82/3/2
f 81/4/2 76/4/2 82/4/2
f 77/4/2 78/4/2 83/4/2
f 82/3/2 77/3/2 83/3/2
f 78/3/2 79/3/2 84/3/2
f 83/4/2 78/4/2 84/4/2
f 84/3/2 79/3/2 85/3/2
f 82/4/2 83/4/2 87/4/2
f 80/4/2 81/4/2 87/4/2
f 84/4/2 85/4/2 87/4/2
f 83/4/2 84/4/2 87/4/2
f 81/4/2 82/4/2 87/4/2
f 85/5/2 86/5/2 88/5/2
f 87/4/2 85/4/2 88/4/2
f 88/5/2 86/5/2 89/5/2
f 93/4/3 91/4/3 90/4/3
f 94/3/3 93/3/3 92/3/3
f 95/4/3 91/4/3 93/4/3
f 95/3/3 93/3/3 94/3/3
f 96/4/3 95/4/3 94/4/3
f 96/4/3 91/4/3 95/4/3
f 97/4/3 91/4/3 96/4/3
f 98/4/3 96/4/3 94/4/3
f 99/5/3 97/5/3 96/5/3
f 99/4/3 96/4/3 98/4/3
f 100/5/3 97/5/3 99/5/3
f 101/4/3 100/4/3 99/4/3
f 102/4/3 100/4/3 101/4/3
f 105/3/3 104/3/3 103/3/3
f 106/3/3 104/3/3 105/3/3
f 109/2/3 108/2/3 107/2/3
f 110/2/3 108/2/3 109/2/3
f 111/1/3 110/1/3 109/1/3
f 112/1/3 110/1/3 111/1/3
f 113/2/3 112/2/3 111/2/3
f 114/2/3 112/2/3 113/2/3
f 115/1/3 114/1/3 113/1/3
f 116/1/3 114/1/3 115/1/3
f 117/2/3 116/2/3 115/2/3
f 118/2/3 116/2/3 117/2/3
f 119/1/3 118/1/3 117/1/3
f 120/1/3 118/1/3 119/1/3
f 123/4/3 122/4/3 121/4/3
f 124/4/3 122/4/3 123/4/3
f 127/1/3 126/1/3 125/1/3
f 128/1/3 126/1/3 127/1/3
f 131/2/3 130/2/3 129/2/3
f 132/2/3 130/2/3 131/2/3
f 133/2/4 134/2/4 135/2/4
f 135/2/4 134/2/4 136/2/4
f 137/1/4 138/1/4 139/1/4
f 139/1/4 138/1/4 140/1/4
f 141/3/4 142/3/4 143/3/4
f 143/3/4 142/3/4 144/3/4
f 145/1/4 146/1/4 147/1/4
f 147/1/4 146/1/4 148/1/4
f 147/2/4 148/2/4 149/2/4
f 149/2/4 148/2/4 150/2/4
f 149/1/4 150/1/4 151/1/4
f 151/1/4 150/1/4 152/1/4
f 151/2/4 152/2/4 153/2/4
f 153/2/4 152/2/4 154/2/4
f 153/1/4 154/1/4 155/1/4
f 155/1/4 154/1/4 156/1/4
f 155/2/4 156/2/4 157/2/4
f 157/2/4 156/2/4 158/2/4
f 159/3/4 160/3/4 161/3/4
f 161/3/4 160/3/4 162/3/4
f 163/4/4 164/4/4 166/4/4
f 165/3/4 166/3/4 167/3/4
f 166/4/4 164/4/4 168/4/4
f 167/3/4 166/3/4 168/3/4
f 167/4/4 168/4/4 169/4/4
f 168/4/4 164/4/4 169/4/4
f 169/4/4 164/4/4 170/4/4
f 167/4/4 169/4/4 171/4/4
f 169/5/4 170/5/4 171/5/4
f 171/5/4 170/5/4 172/5/4
f 167/4/4 171/4/4 173/4/4
f 171/4/4 172/4/4 173/4/4
f 173/4/4 172/4/4 174/4/4
f 173/3/4 174/3/4 175/3/4
f 174/4/4 172/4/4 176/4/4
f 175/3/4 174/3/4 176/3/4
f 176/4/4 172/4/4 177/4/4
f 176/5/4 177/5/4 178/5/4
f 178/5/4 177/5/4 179/5/4
f 188/2/5 181/2/5 180/2/5
f 189/1/5 182/1/5 181/1/5
f 189/2/5 181/2/5 188/2/5
f 190/2/5 183/2/5 182/2/5
f 190/1/5 182/1/5 189/1/5
f 191/1/5 184/1/5 183/1/5
f 191/2/5 183/2/5 190/2/5
f 192/2/5 185/2/5 184/2/5
f 192/1/5 184/1/5 191/1/5
f 193/1/5 186/1/5 185/1/5
f 193/2/5 185/2/5 192/2/5
f 194/1/5 186/1/5 193/1/5
f 196/1/5 192/1/5 191/1/5
f 196/1/5 188/1/5 187/1/5
f 196/1/5 194/1/5 193/1/5
f 196/1/5 193/1/5 192/1/5
f 196/1/5 189/1/5 188/1/5
f 196/1/5 191/1/5 190/1/5
f 196/1/5 190/1/5 189/1/5
f 197/1/5 194/1/5 196/1/5
f 198/2/5 195/2/5 194/2/5
f 198/1/5 194/1/5 197/1/5
f 199/2/5 195/2/5 198/2/5
f 200/2/5 197/2/5 196/2/5
f 201/1/5 198/1/5 197/1/5
f 201/2/5 197/2/5 200/2/5
f 201/1/5 199/1/5 198/1/5
f 202/1/5 199/1/5 201/1/5
f 203/1/5 199/1/5 202/1/5
f 204/1/5 201/1/5 200/1/5
f 204/1/5 202/1/5 201/1/5
f 205/1/5 202/1/5 204/1/5
f 206/2/5 203/2/5 202/2/5
f 206/1/5 202/1/5 205/1/5
f 207/2/5 203/2/5 206/2/5
f 208/2/5 205/2/5 204/2/5
f 209/1/5 206/1/5 205/1/5
f 209/2/5 205/2/5 208/2/5
f 209/1/5 207/1/5 206/1/5
f 210/1/5 207/1/5 209/1/5
f 211/1/5 207/1/5 210/1/5
f 212/1/5 209/1/5 208/1/5
f 212/1/5 210/1/5 209/1/5
f 213/1/5 210/1/5 212/1/5
f 214/2/5 211/2/5 210/2/5
f 214/1/5 210/1/5 213/1/5
f 215/2/5 211/2/5 214/2/5
f 216/2/5 213/2/5 212/2/5
f 217/1/5 214/1/5 213/1/5
f 217/2/5 213/2/5 216/2/5
f 217/1/5 215/1/5 214/1/5
f 218/1/5 215/1/5 217/1/5
f 219/1/5 215/1/5 218/1/5
f 220/1/5 215/1/5 219/1/5
f 221/1/5 215/1/5 220/1/5
f 222/1/5 215/1/5 221/1/5
f 223/1/5 215/1/5 222/1/5
f 224/1/5 215/1/5 223/1/5
f 225/1/5 218/1/5 217/1/5
f 226/2/5 219/2/5 218/2/5
f 226/1/5 218/1/5 225/1/5
f 227/1/5 220/1/5 219/1/5
f 227/2/5 219/2/5 226/2/5
f 228/2/5 221/2/5 220/2/5
f 228/1/5 220/1/5 227/1/5
f 229/1/5 222/1/5 221/1/5
f 229/2/5 221/2/5 228/2/5
f 230/2/5 223/2/5 222/2/5
f 230/1/5 222/1/5 229/1/5
f 231/2/5 223/2/5 230/2/5
f 236/3/5 233/3/5 232/3/5
f 237/3/5 233/3/5 236/3/5
f 238/3/5 233/3/5 237/3/5
f 239/3/5 233/3/5 238/3/5
f 240/3/5 233/3/5 239/3/5
f 241/4/5 234/4/5 233/4/5
f 241/3/5 233/3/5 240/3/5
f 242/4/5 234/4/5 241/4/5
f 243/4/5 234/4/5 242/4/5
f 244/4/5 234/4/5 243/4/5
f 246/3/5 236/3/5 235/3/5
f 246/3/5 237/3/5 236/3/5
f 247/3/5 237/3/5 246/3/5
f 248/3/5 237/3/5 247/3/5
f 249/3/5 244/3/5 243/3/5
f 250/4/5 245/4/5 244/4/5
f 250/3/5 244/3/5 249/3/5
f 251/4/5 245/4/5 250/4/5
f 252/4/5 247/4/5 246/4/5
f 253/3/5 251/3/5 250/3/5
f 254/4/5 252/4/5 246/4/5
f 255/3/5 251/3/5 253/3/5
f 256/4/5 254/4/5 246/4/5
f 257/3/5 251/3/5 255/3/5
f 258/4/5 256/4/5 246/4/5
f 259/4/5 256/4/5 258/4/5
f 260/3/5 251/3/5 257/3/5
f 261/3/5 251/3/5 260/3/5
f 262/3/5 259/3/5 258/3/5
f 263/4/5 261/4/5 260/4/5
f 264/3/5 262/3/5 258/3/5
f 267/4/5 261/4/5 263/4/5
f 268/4/5 261/4/5 267/4/5
f 269/3/5 265/3/5 264/3/5
f 269/3/5 264/3/5 258/3/5
f 270/3/5 265/3/5 269/3/5
f 271/3/5 265/3/5 270/3/5
f 277/3/5 268/3/5 267/3/5
f 277/3/5 267/3/5 266/3/5
f 278/3/5 268/3/5 277/3/5
f 279/3/5 268/3/5 278/3/5
f 280/3/5 271/3/5 270/3/5
f 281/4/5 276/4/5 275/4/5
f 281/3/5 271/3/5 280/3/5
f 281/4/5 275/4/5 274/4/5
f 281/4/5 277/4/5 276/4/5
f 281/4/5 272/4/5 271/4/5
f 281/4/5 274/4/5 273/4/5
f 281/4/5 273/4/5 272/4/5
f 282/3/5 278/3/5 277/3/5
f 282/4/5 277/4/5 281/4/5
f 283/3/5 278/3/5 282/3/5
f 288/4/5 285/4/5 284/4/5
f 289/4/5 285/4/5 288/4/5
f 290/4/5 287/4/5 286/4/5
f 291/4/5 287/4/5 290/4/5
f 296/4/5 293/4/5 292/4/5
f 297/4/5 293/4/5 296/4/5
f 298/5/5 295/5/5 294/5/5
f 299/5/5 295/5/5 298/5/5
f 300/4/6 301/4/6 304/4/6
f 304/4/6 301/4/6 305/4/6
f 305/4/6 301/4/6 306/4/6
f 306/4/6 301/4/6 307/4/6
f 301/5/6 302/5/6 308/5/6
f 307/4/6 301/4/6 308/4/6
f 302/4/6 303/4/6 309/4/6
f 308/5/6 302/5/6 309/5/6
f 300/4/6 304/4/6 310/4/6
f 304/5/6 305/5/6 311/5/6
f 310/4/6 304/4/6 311/4/6
f 305/4/6 306/4/6 312/4/6
f 311/5/6 305/5/6 312/5/6
f 306/5/6 307/5/6 313/5/6
f 312/4/6 306/4/6 313/4/6
f 307/4/6 308/4/6 314/4/6
f 313/5/6 307/5/6 314/5/6
f 308/4/6 309/4/6 314/4/6
f 309/4/6 303/4/6 315/4/6
f 314/4/6 309/4/6 315/4/6
f 312/4/6 313/4/6 316/4/6
f 311/4/6 312/4/6 316/4/6
f 313/4/6 314/4/6 316/4/6
f 314/5/6 315/5/6 317/5/6
f 316/4/6 314/4/6 317/4/6
f 317/5/6 315/5/6 318/5/6
f 318/5/6 315/5/6 319/5/6
f 315/4/6 303/4/6 320/4/6
f 319/5/6 315/5/6 320/5/6
f 311/4/6 316/4/6 321/4/6
f 316/5/6 317/5/6 322/5/6
f 321/4/6 316/4/6 322/4/6
f 317/4/6 318/4/6 323/4/6
f 322/5/6 317/5/6 323/5/6
f 318/5/6 319/5/6 324/5/6
f 323/4/6 318/4/6 324/4/6
f 319/4/6 320/4/6 325/4/6
f 324/5/6 319/5/6 325/5/6
f 311/4/6 321/4/6 326/4/6
f 321/5/6 322/5/6 327/5/6
f 326/4/6 321/4/6 327/4/6
f 322/4/6 323/4/6 328/4/6
f 327/5/6 322/5/6 328/5/6
f 323/4/6 324/4/6 328/4/6
f 324/4/6 325/4/6 328/4/6
f 328/4/6 325/4/6 329/4/6
f 329/4/6 325/4/6 330/4/6
f 325/4/6 320/4/6 331/4/6
f 330/4/6 325/4/6 331/4/6
f 320/4/6 303/4/6 332/4/6
f 331/4/6 320/4/6 332/4/6
f 310/5/6 311/5/6 333/5/6
f 311/4/6 326/4/6 334/4/6
f 333/5/6 311/5/6 334/5/6
f 326/5/6 327/5/6 335/5/6
f 334/4/6 326/4/6 335/4/6
f 327/4/6 328/4/6 336/4/6
f 335/5/6 327/5/6 336/5/6
f 328/4/6 329/4/6 336/4/6
f 329/5/6 330/5/6 337/5/6
f 336/4/6 329/4/6 337/4/6
f 330/4/6 331/4/6 338/4/6
f 337/5/6 330/5/6 338/5/6
f 336/4/6 337/4/6 339/4/6
f 335/4/6 336/4/6 339/4/6
f 337/4/6 338/4/6 339/4/6
f 334/5/6 335/5/6 339/5/6
f 339/4/6 338/4/6 340/4/6
f 338/4/6 331/4/6 341/4/6
f 340/4/6 338/4/6 341/4/6
f 331/5/6 332/5/6 342/5/6
f 341/4/6 331/4/6 342/4/6
f 339/5/6 340/5/6 343/5/6
f 334/5/6 339/5/6 343/5/6
f 340/4/6 341/4/6 344/4/6
f 343/5/6 340/5/6 344/5/6
f 341/5/6 342/5/6 345/5/6
f 344/4/6 341/4/6 345/4/6
f 342/5/6 332/5/6 346/5/6
f 345/5/6 342/5/6 346/5/6
f 332/4/6 303/4/6 346/4/6
f 333/4/6 334/4/6 347/4/6
f 334/5/6 343/5/6 347/5/6
f 344/4/6 345/4/6 348/4/6
f 347/5/6 343/5/6 348/5/6
f 343/4/6 344/4/6 348/4/6
f 345/4/6 346/4/6 348/4/6
f 348/4/6 346/4/6 349/4/6
f 349/4/6 346/4/6 350/4/6
f 346/4/6 303/4/6 351/4/6
f 350/4/6 346/4/6 351/4/6
f 351/4/6 303/4/6 352/4/6
f 333/4/6 347/4/6 353/4/6
f 347/4/6 348/4/6 353/4/6
f 348/4/6 349/4/6 353/4/6
f 349/5/6 350/5/6 354/5/6
f 353/4/6 349/4/6 354/4/6
f 350/4/6 351/4/6 355/4/6
f 354/5/6 350/5/6 355/5/6
f 351/5/6 352/5/6 356/5/6
f 355/4/6 351/4/6 356/4/6
f 356/5/6 352/5/6 357/5/6
