# MagicaVoxel @ Ephtracy

# group
o 

# material
mtllib wall_floor_10_10.mtl
usemtl palette

# normals
vn -1 0 0
vn 1 0 0
vn 0 0 1
vn 0 0 -1
vn 0 -1 0
vn 0 1 0

# texcoords
vt 0.283203 0.5
vt 0.294922 0.5
vt 0.310547 0.5
vt 0.439453 0.5
vt 0.451172 0.5
vt 0.466797 0.5

# verts
v -0.5 -0.1 0.5
v -0.5 -0.1 0.2
v -0.5 -0.1 -0.1
v -0.5 -0.1 -0.5
v -0.5 0 0
v -0.5 0 -0.1
v -0.5 0 -0.2
v -0.5 0 -0.4
v -0.5 0.1 0.5
v -0.5 0.1 0.2
v -0.5 0.1 0
v -0.5 0.1 -0.2
v -0.5 0.1 -0.4
v -0.5 0.1 -0.5
v 0.5 -0.1 0.5
v 0.5 -0.1 0.2
v 0.5 -0.1 0
v 0.5 -0.1 -0.2
v 0.5 -0.1 -0.5
v 0.5 0 0.5
v 0.5 0 0.4
v 0.5 0 0.1
v 0.5 0 0
v 0.5 0 -0.2
v 0.5 0 -0.4
v 0.5 0.1 0.5
v 0.5 0.1 0.4
v 0.5 0.1 0.2
v 0.5 0.1 0.1
v 0.5 0.1 0
v 0.5 0.1 -0.2
v 0.5 0.1 -0.4
v 0.5 0.1 -0.5
v -0.5 -0.1 0.5
v -0.5 0.1 0.5
v -0.3 -0.1 0.5
v -0.3 0 0.5
v -0.2 0 0.5
v -0.2 0.1 0.5
v 0 -0.1 0.5
v 0 0.1 0.5
v 0.1 0 0.5
v 0.1 0.1 0.5
v 0.2 0 0.5
v 0.2 0.1 0.5
v 0.3 -0.1 0.5
v 0.3 0 0.5
v 0.5 -0.1 0.5
v 0.5 0 0.5
v 0.5 0.1 0.5
v -0.5 -0.1 -0.5
v -0.5 0.1 -0.5
v -0.4 -0.1 -0.5
v -0.4 0.1 -0.5
v -0.2 -0.1 -0.5
v -0.2 0 -0.5
v 0 -0.1 -0.5
v 0 0 -0.5
v 0.1 0 -0.5
v 0.1 0.1 -0.5
v 0.2 -0.1 -0.5
v 0.2 0 -0.5
v 0.3 0 -0.5
v 0.3 0.1 -0.5
v 0.4 0 -0.5
v 0.4 0.1 -0.5
v 0.5 -0.1 -0.5
v 0.5 0.1 -0.5
v -0.5 -0.1 0.5
v -0.3 -0.1 0.5
v 0 -0.1 0.5
v 0.3 -0.1 0.5
v 0.5 -0.1 0.5
v -0.4 -0.1 0.4
v -0.3 -0.1 0.4
v -0.2 -0.1 0.4
v -0.1 -0.1 0.4
v 0 -0.1 0.4
v 0.2 -0.1 0.4
v 0.3 -0.1 0.4
v 0.4 -0.1 0.4
v -0.3 -0.1 0.3
v -0.2 -0.1 0.3
v -0.1 -0.1 0.3
v 0.2 -0.1 0.3
v 0.3 -0.1 0.3
v -0.5 -0.1 0.2
v -0.4 -0.1 0.2
v -0.3 -0.1 0.2
v -0.2 -0.1 0.2
v -0.1 -0.1 0.2
v 0 -0.1 0.2
v 0.1 -0.1 0.2
v 0.2 -0.1 0.2
v 0.3 -0.1 0.2
v 0.4 -0.1 0.2
v 0.5 -0.1 0.2
v -0.2 -0.1 0.1
v -0.1 -0.1 0.1
v 0 -0.1 0.1
v 0.1 -0.1 0.1
v -0.2 -0.1 0
v -0.1 -0.1 0
v 0 -0.1 0
v 0.1 -0.1 0
v 0.2 -0.1 0
v 0.3 -0.1 0
v 0.4 -0.1 0
v 0.5 -0.1 0
v -0.5 -0.1 -0.1
v -0.4 -0.1 -0.1
v -0.3 -0.1 -0.1
v -0.2 -0.1 -0.1
v 0 -0.1 -0.1
v 0.1 -0.1 -0.1
v 0.2 -0.1 -0.1
v 0.3 -0.1 -0.1
v 0.4 -0.1 -0.1
v -0.4 -0.1 -0.2
v -0.3 -0.1 -0.2
v -0.2 -0.1 -0.2
v -0.1 -0.1 -0.2
v 0 -0.1 -0.2
v 0.1 -0.1 -0.2
v 0.2 -0.1 -0.2
v 0.4 -0.1 -0.2
v 0.5 -0.1 -0.2
v -0.3 -0.1 -0.3
v -0.2 -0.1 -0.3
v -0.1 -0.1 -0.3
v 0 -0.1 -0.3
v 0.1 -0.1 -0.3
v 0.2 -0.1 -0.3
v 0.3 -0.1 -0.3
v 0.4 -0.1 -0.3
v -0.3 -0.1 -0.4
v -0.2 -0.1 -0.4
v 0 -0.1 -0.4
v 0.1 -0.1 -0.4
v 0.2 -0.1 -0.4
v 0.3 -0.1 -0.4
v 0.4 -0.1 -0.4
v -0.5 -0.1 -0.5
v -0.4 -0.1 -0.5
v -0.2 -0.1 -0.5
v 0 -0.1 -0.5
v 0.2 -0.1 -0.5
v 0.5 -0.1 -0.5
v -0.5 0.1 0.5
v -0.2 0.1 0.5
v 0 0.1 0.5
v 0.1 0.1 0.5
v 0.2 0.1 0.5
v 0.5 0.1 0.5
v -0.4 0.1 0.4
v -0.2 0.1 0.4
v -0.1 0.1 0.4
v 0 0.1 0.4
v 0.1 0.1 0.4
v 0.2 0.1 0.4
v 0.3 0.1 0.4
v 0.5 0.1 0.4
v -0.3 0.1 0.3
v -0.2 0.1 0.3
v -0.1 0.1 0.3
v 0 0.1 0.3
v 0.1 0.1 0.3
v 0.2 0.1 0.3
v 0.3 0.1 0.3
v 0.4 0.1 0.3
v -0.5 0.1 0.2
v -0.4 0.1 0.2
v -0.3 0.1 0.2
v -0.1 0.1 0.2
v 0.1 0.1 0.2
v 0.2 0.1 0.2
v 0.4 0.1 0.2
v 0.5 0.1 0.2
v -0.4 0.1 0.1
v -0.3 0.1 0.1
v -0.2 0.1 0.1
v -0.1 0.1 0.1
v 0 0.1 0.1
v 0.1 0.1 0.1
v 0.3 0.1 0.1
v 0.4 0.1 0.1
v 0.5 0.1 0.1
v -0.5 0.1 0
v -0.4 0.1 0
v -0.3 0.1 0
v -0.2 0.1 0
v -0.1 0.1 0
v 0 0.1 0
v 0.1 0.1 0
v 0.2 0.1 0
v 0.4 0.1 0
v 0.5 0.1 0
v -0.4 0.1 -0.1
v -0.3 0.1 -0.1
v -0.2 0.1 -0.1
v -0.1 0.1 -0.1
v 0.1 0.1 -0.1
v 0.2 0.1 -0.1
v 0.3 0.1 -0.1
v -0.5 0.1 -0.2
v -0.4 0.1 -0.2
v -0.3 0.1 -0.2
v -0.1 0.1 -0.2
v 0.1 0.1 -0.2
v 0.2 0.1 -0.2
v 0.3 0.1 -0.2
v 0.4 0.1 -0.2
v 0.5 0.1 -0.2
v -0.3 0.1 -0.3
v -0.2 0.1 -0.3
v 0.3 0.1 -0.3
v 0.4 0.1 -0.3
v -0.5 0.1 -0.4
v -0.4 0.1 -0.4
v 0.1 0.1 -0.4
v 0.3 0.1 -0.4
v 0.4 0.1 -0.4
v 0.5 0.1 -0.4
v -0.5 0.1 -0.5
v -0.4 0.1 -0.5
v 0.1 0.1 -0.5
v 0.3 0.1 -0.5
v 0.4 0.1 -0.5
v 0.5 0.1 -0.5

# faces
f 5/5/1 3/5/1 2/5/1
f 6/6/1 4/6/1 3/6/1
f 6/5/1 3/5/1 5/5/1
f 7/6/1 4/6/1 6/6/1
f 8/6/1 4/6/1 7/6/1
f 9/6/1 2/6/1 1/6/1
f 10/5/1 5/5/1 2/5/1
f 10/6/1 2/6/1 9/6/1
f 11/6/1 6/6/1 5/6/1
f 11/5/1 5/5/1 10/5/1
f 11/6/1 7/6/1 6/6/1
f 12/5/1 8/5/1 7/5/1
f 12/6/1 7/6/1 11/6/1
f 13/6/1 4/6/1 8/6/1
f 13/5/1 8/5/1 12/5/1
f 14/6/1 4/6/1 13/6/1
f 15/5/2 16/5/2 20/5/2
f 20/5/2 16/5/2 21/5/2
f 16/6/2 17/6/2 22/6/2
f 17/5/2 18/5/2 23/5/2
f 22/6/2 17/6/2 23/6/2
f 18/6/2 19/6/2 24/6/2
f 23/5/2 18/5/2 24/5/2
f 24/6/2 19/6/2 25/6/2
f 20/6/2 21/6/2 26/6/2
f 21/5/2 16/5/2 27/5/2
f 26/6/2 21/6/2 27/6/2
f 16/6/2 22/6/2 28/6/2
f 27/5/2 16/5/2 28/5/2
f 22/5/2 23/5/2 29/5/2
f 28/6/2 22/6/2 29/6/2
f 23/6/2 24/6/2 30/6/2
f 29/5/2 23/5/2 30/5/2
f 24/5/2 25/5/2 31/5/2
f 30/6/2 24/6/2 31/6/2
f 25/6/2 19/6/2 32/6/2
f 31/5/2 25/5/2 32/5/2
f 32/6/2 19/6/2 33/6/2
f 36/6/3 35/6/3 34/6/3
f 37/6/3 35/6/3 36/6/3
f 38/5/3 37/5/3 36/5/3
f 38/6/3 35/6/3 37/6/3
f 39/6/3 35/6/3 38/6/3
f 40/5/3 38/5/3 36/5/3
f 40/5/3 39/5/3 38/5/3
f 41/5/3 39/5/3 40/5/3
f 42/6/3 41/6/3 40/6/3
f 43/6/3 41/6/3 42/6/3
f 44/6/3 42/6/3 40/6/3
f 44/5/3 43/5/3 42/5/3
f 45/5/3 43/5/3 44/5/3
f 46/6/3 44/6/3 40/6/3
f 46/6/3 45/6/3 44/6/3
f 47/6/3 45/6/3 46/6/3
f 48/5/3 47/5/3 46/5/3
f 49/6/3 45/6/3 47/6/3
f 49/5/3 47/5/3 48/5/3
f 50/6/3 45/6/3 49/6/3
f 51/6/4 52/6/4 53/6/4
f 53/6/4 52/6/4 54/6/4
f 53/5/4 54/5/4 55/5/4
f 55/5/4 54/5/4 56/5/4
f 55/6/4 56/6/4 57/6/4
f 56/5/4 54/5/4 58/5/4
f 57/6/4 56/6/4 58/6/4
f 57/5/4 58/5/4 59/5/4
f 58/5/4 54/5/4 59/5/4
f 59/5/4 54/5/4 60/5/4
f 57/5/4 59/5/4 61/5/4
f 59/6/4 60/6/4 62/6/4
f 61/5/4 59/5/4 62/5/4
f 61/6/4 62/6/4 63/6/4
f 62/6/4 60/6/4 63/6/4
f 63/6/4 60/6/4 64/6/4
f 61/6/4 63/6/4 65/6/4
f 63/5/4 64/5/4 65/5/4
f 65/5/4 64/5/4 66/5/4
f 61/6/4 65/6/4 67/6/4
f 65/6/4 66/6/4 67/6/4
f 67/6/4 66/6/4 68/6/4
f 74/6/5 70/6/5 69/6/5
f 75/5/5 71/5/5 70/5/5
f 75/6/5 70/6/5 74/6/5
f 76/5/5 71/5/5 75/5/5
f 77/5/5 71/5/5 76/5/5
f 78/6/5 72/6/5 71/6/5
f 78/5/5 71/5/5 77/5/5
f 79/6/5 72/6/5 78/6/5
f 80/5/5 73/5/5 72/5/5
f 80/6/5 72/6/5 79/6/5
f 81/5/5 73/5/5 80/5/5
f 82/5/5 75/5/5 74/5/5
f 82/5/5 76/5/5 75/5/5
f 83/4/5 77/4/5 76/4/5
f 83/5/5 76/5/5 82/5/5
f 84/5/5 79/5/5 78/5/5
f 84/4/5 77/4/5 83/4/5
f 84/5/5 78/5/5 77/5/5
f 85/4/5 81/4/5 80/4/5
f 85/5/5 79/5/5 84/5/5
f 85/4/5 80/4/5 79/4/5
f 86/4/5 81/4/5 85/4/5
f 87/6/5 74/6/5 69/6/5
f 88/5/5 82/5/5 74/5/5
f 88/6/5 74/6/5 87/6/5
f 89/2/5 83/2/5 82/2/5
f 89/5/5 82/5/5 88/5/5
f 90/3/5 84/3/5 83/3/5
f 90/2/5 83/2/5 89/2/5
f 90/3/5 85/3/5 84/3/5
f 90/3/5 86/3/5 85/3/5
f 91/3/5 86/3/5 90/3/5
f 92/3/5 86/3/5 91/3/5
f 93/3/5 86/3/5 92/3/5
f 94/3/5 86/3/5 93/3/5
f 95/4/5 81/4/5 86/4/5
f 95/3/5 86/3/5 94/3/5
f 96/5/5 73/5/5 81/5/5
f 96/4/5 81/4/5 95/4/5
f 97/5/5 73/5/5 96/5/5
f 98/3/5 90/3/5 89/3/5
f 98/2/5 91/2/5 90/2/5
f 99/1/5 92/1/5 91/1/5
f 99/2/5 91/2/5 98/2/5
f 100/2/5 93/2/5 92/2/5
f 100/1/5 92/1/5 99/1/5
f 101/3/5 94/3/5 93/3/5
f 101/2/5 93/2/5 100/2/5
f 102/3/5 98/3/5 89/3/5
f 102/1/5 99/1/5 98/1/5
f 103/3/5 100/3/5 99/3/5
f 103/1/5 99/1/5 102/1/5
f 104/1/5 101/1/5 100/1/5
f 104/3/5 100/3/5 103/3/5
f 105/3/5 94/3/5 101/3/5
f 105/1/5 101/1/5 104/1/5
f 106/2/5 95/2/5 94/2/5
f 106/3/5 94/3/5 105/3/5
f 107/5/5 96/5/5 95/5/5
f 107/2/5 95/2/5 106/2/5
f 108/6/5 97/6/5 96/6/5
f 108/5/5 96/5/5 107/5/5
f 109/6/5 97/6/5 108/6/5
f 110/5/5 88/5/5 87/5/5
f 111/4/5 89/4/5 88/4/5
f 111/5/5 88/5/5 110/5/5
f 112/3/5 102/3/5 89/3/5
f 112/4/5 89/4/5 111/4/5
f 112/3/5 104/3/5 103/3/5
f 112/3/5 103/3/5 102/3/5
f 113/3/5 104/3/5 112/3/5
f 114/2/5 105/2/5 104/2/5
f 114/3/5 104/3/5 113/3/5
f 115/1/5 106/1/5 105/1/5
f 115/2/5 105/2/5 114/2/5
f 116/3/5 107/3/5 106/3/5
f 116/1/5 106/1/5 115/1/5
f 117/5/5 109/5/5 108/5/5
f 117/3/5 107/3/5 116/3/5
f 117/5/5 108/5/5 107/5/5
f 118/5/5 109/5/5 117/5/5
f 119/6/5 111/6/5 110/6/5
f 119/4/5 112/4/5 111/4/5
f 120/2/5 113/2/5 112/2/5
f 120/4/5 112/4/5 119/4/5
f 121/3/5 114/3/5 113/3/5
f 121/2/5 113/2/5 120/2/5
f 122/3/5 114/3/5 121/3/5
f 123/1/5 115/1/5 114/1/5
f 123/3/5 114/3/5 122/3/5
f 124/2/5 116/2/5 115/2/5
f 124/1/5 115/1/5 123/1/5
f 125/3/5 117/3/5 116/3/5
f 125/2/5 116/2/5 124/2/5
f 126/5/5 109/5/5 118/5/5
f 126/4/5 118/4/5 117/4/5
f 127/5/5 109/5/5 126/5/5
f 128/5/5 120/5/5 119/5/5
f 128/3/5 121/3/5 120/3/5
f 129/2/5 122/2/5 121/2/5
f 129/3/5 121/3/5 128/3/5
f 130/3/5 123/3/5 122/3/5
f 130/2/5 122/2/5 129/2/5
f 130/3/5 125/3/5 124/3/5
f 130/3/5 124/3/5 123/3/5
f 131/3/5 125/3/5 130/3/5
f 132/3/5 125/3/5 131/3/5
f 133/3/5 117/3/5 125/3/5
f 133/3/5 125/3/5 132/3/5
f 134/4/5 126/4/5 117/4/5
f 134/3/5 117/3/5 133/3/5
f 135/6/5 127/6/5 126/6/5
f 135/4/5 126/4/5 134/4/5
f 136/5/5 128/5/5 119/5/5
f 136/4/5 129/4/5 128/4/5
f 137/5/5 130/5/5 129/5/5
f 137/4/5 129/4/5 136/4/5
f 137/5/5 131/5/5 130/5/5
f 138/4/5 132/4/5 131/4/5
f 138/5/5 131/5/5 137/5/5
f 139/5/5 133/5/5 132/5/5
f 139/4/5 132/4/5 138/4/5
f 140/4/5 134/4/5 133/4/5
f 140/5/5 133/5/5 139/5/5
f 141/5/5 135/5/5 134/5/5
f 141/4/5 134/4/5 140/4/5
f 142/6/5 127/6/5 135/6/5
f 142/5/5 135/5/5 141/5/5
f 143/6/5 119/6/5 110/6/5
f 144/5/5 137/5/5 136/5/5
f 144/6/5 119/6/5 143/6/5
f 144/5/5 136/5/5 119/5/5
f 145/6/5 138/6/5 137/6/5
f 145/5/5 137/5/5 144/5/5
f 146/5/5 140/5/5 139/5/5
f 146/6/5 138/6/5 145/6/5
f 146/5/5 139/5/5 138/5/5
f 147/6/5 141/6/5 140/6/5
f 147/5/5 140/5/5 146/5/5
f 147/6/5 142/6/5 141/6/5
f 148/6/5 127/6/5 142/6/5
f 148/6/5 142/6/5 147/6/5
f 149/6/6 150/6/6 155/6/6
f 150/5/6 151/5/6 156/5/6
f 155/6/6 150/6/6 156/6/6
f 156/5/6 151/5/6 157/5/6
f 151/6/6 152/6/6 158/6/6
f 157/5/6 151/5/6 158/5/6
f 152/5/6 153/5/6 159/5/6
f 158/6/6 152/6/6 159/6/6
f 153/6/6 154/6/6 160/6/6
f 159/5/6 153/5/6 160/5/6
f 160/6/6 154/6/6 161/6/6
f 161/6/6 154/6/6 162/6/6
f 155/4/6 156/4/6 163/4/6
f 156/5/6 157/5/6 164/5/6
f 163/4/6 156/4/6 164/4/6
f 158/4/6 159/4/6 165/4/6
f 164/5/6 157/5/6 165/5/6
f 157/4/6 158/4/6 165/4/6
f 165/4/6 159/4/6 166/4/6
f 159/5/6 160/5/6 167/5/6
f 166/4/6 159/4/6 167/4/6
f 160/4/6 161/4/6 168/4/6
f 167/5/6 160/5/6 168/5/6
f 161/5/6 162/5/6 169/5/6
f 168/4/6 161/4/6 169/4/6
f 169/5/6 162/5/6 170/5/6
f 149/6/6 155/6/6 171/6/6
f 155/4/6 163/4/6 172/4/6
f 171/6/6 155/6/6 172/6/6
f 163/2/6 164/2/6 173/2/6
f 172/4/6 163/4/6 173/4/6
f 165/2/6 166/2/6 173/2/6
f 164/2/6 165/2/6 173/2/6
f 173/2/6 166/2/6 174/2/6
f 167/2/6 168/2/6 175/2/6
f 166/3/6 167/3/6 175/3/6
f 168/3/6 169/3/6 176/3/6
f 175/2/6 168/2/6 176/2/6
f 170/5/6 162/5/6 177/5/6
f 169/4/6 170/4/6 177/4/6
f 177/5/6 162/5/6 178/5/6
f 171/5/6 172/5/6 179/5/6
f 172/5/6 173/5/6 179/5/6
f 173/3/6 174/3/6 180/3/6
f 179/5/6 173/5/6 180/5/6
f 180/3/6 174/3/6 181/3/6
f 174/2/6 166/2/6 182/2/6
f 181/3/6 174/3/6 182/3/6
f 166/3/6 175/3/6 183/3/6
f 182/2/6 166/2/6 183/2/6
f 175/1/6 176/1/6 184/1/6
f 183/3/6 175/3/6 184/3/6
f 176/3/6 169/3/6 185/3/6
f 169/4/6 177/4/6 185/4/6
f 177/6/6 178/6/6 186/6/6
f 185/4/6 177/4/6 186/4/6
f 186/6/6 178/6/6 187/6/6
f 171/5/6 179/5/6 188/5/6
f 179/4/6 180/4/6 189/4/6
f 188/5/6 179/5/6 189/5/6
f 180/2/6 181/2/6 190/2/6
f 189/4/6 180/4/6 190/4/6
f 181/3/6 182/3/6 191/3/6
f 190/2/6 181/2/6 191/2/6
f 182/1/6 183/1/6 192/1/6
f 191/3/6 182/3/6 192/3/6
f 183/2/6 184/2/6 193/2/6
f 192/1/6 183/1/6 193/1/6
f 184/1/6 176/1/6 194/1/6
f 193/2/6 184/2/6 194/2/6
f 176/3/6 185/3/6 195/3/6
f 194/1/6 176/1/6 195/1/6
f 185/5/6 186/5/6 196/5/6
f 186/5/6 187/5/6 196/5/6
f 196/5/6 187/5/6 197/5/6
f 188/6/6 189/6/6 198/6/6
f 189/4/6 190/4/6 198/4/6
f 190/3/6 191/3/6 199/3/6
f 198/4/6 190/4/6 199/4/6
f 191/2/6 192/2/6 200/2/6
f 199/3/6 191/3/6 200/3/6
f 192/1/6 193/1/6 201/1/6
f 200/2/6 192/2/6 201/2/6
f 193/1/6 194/1/6 201/1/6
f 194/3/6 195/3/6 202/3/6
f 201/1/6 194/1/6 202/1/6
f 195/3/6 185/3/6 203/3/6
f 202/3/6 195/3/6 203/3/6
f 185/5/6 196/5/6 204/5/6
f 203/3/6 185/3/6 204/3/6
f 188/6/6 198/6/6 205/6/6
f 198/5/6 199/5/6 206/5/6
f 205/6/6 198/6/6 206/6/6
f 199/2/6 200/2/6 207/2/6
f 206/5/6 199/5/6 207/5/6
f 201/2/6 202/2/6 208/2/6
f 200/3/6 201/3/6 208/3/6
f 202/3/6 203/3/6 209/3/6
f 208/2/6 202/2/6 209/2/6
f 203/2/6 204/2/6 210/2/6
f 209/3/6 203/3/6 210/3/6
f 204/5/6 196/5/6 211/5/6
f 210/2/6 204/2/6 211/2/6
f 196/6/6 197/6/6 212/6/6
f 211/5/6 196/5/6 212/5/6
f 212/6/6 197/6/6 213/6/6
f 207/2/6 200/2/6 214/2/6
f 206/4/6 207/4/6 214/4/6
f 209/3/6 210/3/6 215/3/6
f 214/2/6 200/2/6 215/2/6
f 210/3/6 211/3/6 215/3/6
f 200/3/6 208/3/6 215/3/6
f 208/3/6 209/3/6 215/3/6
f 211/4/6 212/4/6 216/4/6
f 215/3/6 211/3/6 216/3/6
f 212/5/6 213/5/6 217/5/6
f 216/4/6 212/4/6 217/4/6
f 205/5/6 206/5/6 218/5/6
f 206/4/6 214/4/6 219/4/6
f 218/5/6 206/5/6 219/5/6
f 214/4/6 215/4/6 219/4/6
f 215/4/6 216/4/6 219/4/6
f 219/4/6 216/4/6 220/4/6
f 216/5/6 217/5/6 221/5/6
f 220/4/6 216/4/6 221/4/6
f 217/5/6 213/5/6 222/5/6
f 221/5/6 217/5/6 222/5/6
f 222/5/6 213/5/6 223/5/6
f 218/6/6 219/6/6 224/6/6
f 219/5/6 220/5/6 225/5/6
f 224/6/6 219/6/6 225/6/6
f 220/6/6 221/6/6 226/6/6
f 225/5/6 220/5/6 226/5/6
f 221/5/6 222/5/6 227/5/6
f 226/6/6 221/6/6 227/6/6
f 222/6/6 223/6/6 228/6/6
f 227/5/6 222/5/6 228/5/6
f 228/6/6 223/6/6 229/6/6
