# MagicaVoxel @ Ephtracy

# group
o 

# material
mtllib wall_pillar_base.mtl
usemtl palette

# normals
vn -1 0 0
vn 1 0 0
vn 0 0 1
vn 0 0 -1
vn 0 -1 0
vn 0 1 0

# texcoords
vt 0.107422 0.5
vt 0.123047 0.5
vt 0.439453 0.5
vt 0.451172 0.5
vt 0.466797 0.5

# verts
v -0.5 0 0.5
v -0.5 0 0.4
v -0.5 0 0.3
v -0.5 0 0.1
v -0.5 0 -0.1
v -0.5 0 -0.5
v -0.5 0.1 0.5
v -0.5 0.1 0.4
v -0.5 0.1 0.3
v -0.5 0.1 0.1
v -0.5 0.1 -0.1
v -0.5 0.1 -0.2
v -0.5 0.1 -0.3
v -0.5 0.1 -0.4
v -0.5 0.1 -0.5
v -0.5 0.2 0.4
v -0.5 0.2 -0.2
v -0.5 0.2 -0.3
v -0.5 0.2 -0.4
v -0.4 0.1 0.5
v -0.4 0.1 0.4
v -0.4 0.1 -0.4
v -0.4 0.1 -0.5
v -0.4 0.2 0.5
v -0.4 0.2 0.4
v -0.4 0.2 0.3
v -0.4 0.2 0.2
v -0.4 0.2 0.1
v -0.4 0.2 0
v -0.4 0.2 -0.1
v -0.4 0.2 -0.2
v -0.4 0.2 -0.3
v -0.4 0.2 -0.4
v -0.4 0.2 -0.5
v -0.4 0.5 0.3
v -0.4 0.5 0.2
v -0.4 0.5 0.1
v -0.4 0.5 0
v -0.4 0.5 -0.1
v -0.4 0.5 -0.2
v -0.4 0.5 -0.3
v -0.3 0.2 0.4
v -0.3 0.2 0.3
v -0.3 0.2 -0.3
v -0.3 0.2 -0.4
v -0.3 0.5 0.4
v -0.3 0.5 0.3
v -0.3 0.5 -0.3
v -0.3 0.5 -0.4
v 0.3 0.2 0.4
v 0.3 0.2 0.3
v 0.3 0.2 -0.3
v 0.3 0.2 -0.4
v 0.3 0.5 0.4
v 0.3 0.5 0.3
v 0.3 0.5 -0.3
v 0.3 0.5 -0.4
v 0.4 0.1 0.5
v 0.4 0.1 0.4
v 0.4 0.1 -0.4
v 0.4 0.1 -0.5
v 0.4 0.2 0.5
v 0.4 0.2 0.4
v 0.4 0.2 0.3
v 0.4 0.2 0.2
v 0.4 0.2 0.1
v 0.4 0.2 0
v 0.4 0.2 -0.1
v 0.4 0.2 -0.2
v 0.4 0.2 -0.3
v 0.4 0.2 -0.4
v 0.4 0.2 -0.5
v 0.4 0.5 0.3
v 0.4 0.5 0.2
v 0.4 0.5 0.1
v 0.4 0.5 0
v 0.4 0.5 -0.1
v 0.4 0.5 -0.2
v 0.4 0.5 -0.3
v 0.5 0 0.5
v 0.5 0 -0.5
v 0.5 0.1 0.5
v 0.5 0.1 0.4
v 0.5 0.1 0.3
v 0.5 0.1 0.1
v 0.5 0.1 -0.4
v 0.5 0.1 -0.5
v 0.5 0.2 0.4
v 0.5 0.2 0.3
v 0.5 0.2 0.1
v 0.5 0.2 -0.4
v -0.5 0 0.5
v -0.5 0.1 0.5
v -0.4 0.1 0.5
v -0.4 0.2 0.5
v 0 0 0.5
v 0 0.1 0.5
v 0.4 0 0.5
v 0.4 0.1 0.5
v 0.4 0.2 0.5
v 0.5 0 0.5
v 0.5 0.1 0.5
v -0.5 0.1 0.4
v -0.5 0.2 0.4
v -0.4 0.1 0.4
v -0.4 0.2 0.4
v -0.3 0.2 0.4
v -0.3 0.5 0.4
v -0.2 0.2 0.4
v -0.2 0.5 0.4
v -0.1 0.2 0.4
v -0.1 0.5 0.4
v 0 0.2 0.4
v 0 0.5 0.4
v 0.1 0.2 0.4
v 0.1 0.5 0.4
v 0.2 0.2 0.4
v 0.2 0.5 0.4
v 0.3 0.2 0.4
v 0.3 0.5 0.4
v 0.4 0.1 0.4
v 0.4 0.2 0.4
v 0.5 0.1 0.4
v 0.5 0.2 0.4
v -0.4 0.2 0.3
v -0.4 0.5 0.3
v -0.3 0.2 0.3
v -0.3 0.5 0.3
v 0.3 0.2 0.3
v 0.3 0.5 0.3
v 0.4 0.2 0.3
v 0.4 0.5 0.3
v -0.4 0.2 -0.3
v -0.4 0.5 -0.3
v -0.3 0.2 -0.3
v -0.3 0.5 -0.3
v 0.3 0.2 -0.3
v 0.3 0.5 -0.3
v 0.4 0.2 -0.3
v 0.4 0.5 -0.3
v -0.5 0.1 -0.4
v -0.5 0.2 -0.4
v -0.4 0.1 -0.4
v -0.4 0.2 -0.4
v -0.3 0.2 -0.4
v -0.3 0.5 -0.4
v -0.2 0.2 -0.4
v -0.2 0.5 -0.4
v -0.1 0.2 -0.4
v -0.1 0.5 -0.4
v 0 0.2 -0.4
v 0 0.5 -0.4
v 0.1 0.2 -0.4
v 0.1 0.5 -0.4
v 0.2 0.2 -0.4
v 0.2 0.5 -0.4
v 0.3 0.2 -0.4
v 0.3 0.5 -0.4
v 0.4 0.1 -0.4
v 0.4 0.2 -0.4
v 0.5 0.1 -0.4
v 0.5 0.2 -0.4
v -0.5 0 -0.5
v -0.5 0.1 -0.5
v -0.4 0.1 -0.5
v -0.4 0.2 -0.5
v -0.2 0.1 -0.5
v -0.2 0.2 -0.5
v -0.1 0 -0.5
v -0.1 0.1 -0.5
v 0.4 0 -0.5
v 0.4 0.1 -0.5
v 0.4 0.2 -0.5
v 0.5 0 -0.5
v 0.5 0.1 -0.5
v -0.5 0 0.5
v 0 0 0.5
v 0.4 0 0.5
v 0.5 0 0.5
v -0.5 0 0.4
v 0 0 0.4
v -0.5 0 0.3
v -0.4 0 0.3
v -0.5 0 0.1
v -0.4 0 0.1
v -0.5 0 -0.1
v -0.4 0 -0.1
v -0.4 0 -0.4
v -0.1 0 -0.4
v -0.5 0 -0.5
v -0.1 0 -0.5
v 0.4 0 -0.5
v 0.5 0 -0.5
v -0.5 0.1 0.5
v -0.4 0.1 0.5
v 0.4 0.1 0.5
v 0.5 0.1 0.5
v -0.5 0.1 0.4
v -0.4 0.1 0.4
v 0.4 0.1 0.4
v 0.5 0.1 0.4
v -0.5 0.1 -0.4
v -0.4 0.1 -0.4
v 0.4 0.1 -0.4
v 0.5 0.1 -0.4
v -0.5 0.1 -0.5
v -0.4 0.1 -0.5
v 0.4 0.1 -0.5
v 0.5 0.1 -0.5
v -0.4 0.2 0.5
v 0.4 0.2 0.5
v -0.5 0.2 0.4
v -0.4 0.2 0.4
v -0.3 0.2 0.4
v -0.2 0.2 0.4
v -0.1 0.2 0.4
v 0 0.2 0.4
v 0.1 0.2 0.4
v 0.2 0.2 0.4
v 0.3 0.2 0.4
v 0.4 0.2 0.4
v 0.5 0.2 0.4
v -0.4 0.2 0.3
v -0.3 0.2 0.3
v 0.3 0.2 0.3
v 0.4 0.2 0.3
v 0.5 0.2 0.3
v -0.4 0.2 0.2
v 0.4 0.2 0.2
v -0.4 0.2 0.1
v 0.4 0.2 0.1
v 0.5 0.2 0.1
v -0.4 0.2 0
v 0.4 0.2 0
v -0.4 0.2 -0.1
v 0.4 0.2 -0.1
v -0.5 0.2 -0.2
v -0.4 0.2 -0.2
v 0.4 0.2 -0.2
v -0.5 0.2 -0.3
v -0.4 0.2 -0.3
v -0.3 0.2 -0.3
v 0.3 0.2 -0.3
v 0.4 0.2 -0.3
v -0.5 0.2 -0.4
v -0.4 0.2 -0.4
v -0.3 0.2 -0.4
v -0.2 0.2 -0.4
v -0.1 0.2 -0.4
v 0 0.2 -0.4
v 0.1 0.2 -0.4
v 0.2 0.2 -0.4
v 0.3 0.2 -0.4
v 0.4 0.2 -0.4
v 0.5 0.2 -0.4
v -0.4 0.2 -0.5
v -0.2 0.2 -0.5
v 0.4 0.2 -0.5
v -0.3 0.5 0.4
v -0.2 0.5 0.4
v -0.1 0.5 0.4
v 0 0.5 0.4
v 0.1 0.5 0.4
v 0.2 0.5 0.4
v 0.3 0.5 0.4
v -0.4 0.5 0.3
v -0.3 0.5 0.3
v -0.2 0.5 0.3
v -0.1 0.5 0.3
v 0 0.5 0.3
v 0.1 0.5 0.3
v 0.2 0.5 0.3
v 0.3 0.5 0.3
v 0.4 0.5 0.3
v -0.4 0.5 0.2
v -0.3 0.5 0.2
v 0.3 0.5 0.2
v 0.4 0.5 0.2
v -0.4 0.5 0.1
v -0.3 0.5 0.1
v 0.3 0.5 0.1
v 0.4 0.5 0.1
v -0.4 0.5 0
v -0.3 0.5 0
v 0.3 0.5 0
v 0.4 0.5 0
v -0.4 0.5 -0.1
v -0.3 0.5 -0.1
v 0.3 0.5 -0.1
v 0.4 0.5 -0.1
v -0.4 0.5 -0.2
v -0.3 0.5 -0.2
v 0.3 0.5 -0.2
v 0.4 0.5 -0.2
v -0.4 0.5 -0.3
v -0.3 0.5 -0.3
v -0.2 0.5 -0.3
v -0.1 0.5 -0.3
v 0 0.5 -0.3
v 0.1 0.5 -0.3
v 0.2 0.5 -0.3
v 0.3 0.5 -0.3
v 0.4 0.5 -0.3
v -0.3 0.5 -0.4
v -0.2 0.5 -0.4
v -0.1 0.5 -0.4
v 0 0.5 -0.4
v 0.1 0.5 -0.4
v 0.2 0.5 -0.4
v 0.3 0.5 -0.4

# faces
f 7/4/1 2/4/1 1/4/1
f 8/5/1 3/5/1 2/5/1
f 8/4/1 2/4/1 7/4/1
f 9/4/1 4/4/1 3/4/1
f 9/5/1 3/5/1 8/5/1
f 10/5/1 5/5/1 4/5/1
f 10/4/1 4/4/1 9/4/1
f 11/4/1 6/4/1 5/4/1
f 11/5/1 5/5/1 10/5/1
f 12/4/1 6/4/1 11/4/1
f 13/4/1 6/4/1 12/4/1
f 14/4/1 6/4/1 13/4/1
f 15/4/1 6/4/1 14/4/1
f 16/4/1 10/4/1 9/4/1
f 16/4/1 9/4/1 8/4/1
f 16/4/1 11/4/1 10/4/1
f 16/4/1 12/4/1 11/4/1
f 17/3/1 13/3/1 12/3/1
f 17/4/1 12/4/1 16/4/1
f 18/4/1 14/4/1 13/4/1
f 18/3/1 13/3/1 17/3/1
f 19/4/1 14/4/1 18/4/1
f 24/4/1 21/4/1 20/4/1
f 25/4/1 21/4/1 24/4/1
f 33/3/1 23/3/1 22/3/1
f 34/3/1 23/3/1 33/3/1
f 35/1/1 27/1/1 26/1/1
f 36/2/1 28/2/1 27/2/1
f 36/1/1 27/1/1 35/1/1
f 37/1/1 29/1/1 28/1/1
f 37/2/1 28/2/1 36/2/1
f 38/2/1 30/2/1 29/2/1
f 38/1/1 29/1/1 37/1/1
f 39/1/1 31/1/1 30/1/1
f 39/2/1 30/2/1 38/2/1
f 40/2/1 32/2/1 31/2/1
f 40/1/1 31/1/1 39/1/1
f 41/2/1 32/2/1 40/2/1
f 46/2/1 43/2/1 42/2/1
f 47/2/1 43/2/1 46/2/1
f 48/1/1 45/1/1 44/1/1
f 49/1/1 45/1/1 48/1/1
f 50/1/2 51/1/2 54/1/2
f 54/1/2 51/1/2 55/1/2
f 52/2/2 53/2/2 56/2/2
f 56/2/2 53/2/2 57/2/2
f 58/4/2 59/4/2 62/4/2
f 62/4/2 59/4/2 63/4/2
f 60/4/2 61/4/2 71/4/2
f 71/4/2 61/4/2 72/4/2
f 64/2/2 65/2/2 73/2/2
f 65/1/2 66/1/2 74/1/2
f 73/2/2 65/2/2 74/2/2
f 66/2/2 67/2/2 75/2/2
f 74/1/2 66/1/2 75/1/2
f 67/1/2 68/1/2 76/1/2
f 75/2/2 67/2/2 76/2/2
f 68/2/2 69/2/2 77/2/2
f 76/1/2 68/1/2 77/1/2
f 69/1/2 70/1/2 78/1/2
f 77/2/2 69/2/2 78/2/2
f 78/1/2 70/1/2 79/1/2
f 80/4/2 81/4/2 82/4/2
f 82/4/2 81/4/2 83/4/2
f 83/4/2 81/4/2 84/4/2
f 84/4/2 81/4/2 85/4/2
f 85/4/2 81/4/2 86/4/2
f 86/4/2 81/4/2 87/4/2
f 83/3/2 84/3/2 88/3/2
f 84/4/2 85/4/2 89/4/2
f 88/3/2 84/3/2 89/3/2
f 85/3/2 86/3/2 90/3/2
f 89/4/2 85/4/2 90/4/2
f 90/3/2 86/3/2 91/3/2
f 94/4/3 93/4/3 92/4/3
f 96/4/3 94/4/3 92/4/3
f 96/4/3 95/4/3 94/4/3
f 97/4/3 95/4/3 96/4/3
f 98/5/3 97/5/3 96/5/3
f 99/4/3 95/4/3 97/4/3
f 99/5/3 97/5/3 98/5/3
f 100/4/3 95/4/3 99/4/3
f 101/4/3 99/4/3 98/4/3
f 102/4/3 99/4/3 101/4/3
f 105/4/3 104/4/3 103/4/3
f 106/4/3 104/4/3 105/4/3
f 109/2/3 108/2/3 107/2/3
f 110/2/3 108/2/3 109/2/3
f 111/1/3 110/1/3 109/1/3
f 112/1/3 110/1/3 111/1/3
f 113/2/3 112/2/3 111/2/3
f 114/2/3 112/2/3 113/2/3
f 115/1/3 114/1/3 113/1/3
f 116/1/3 114/1/3 115/1/3
f 117/2/3 116/2/3 115/2/3
f 118/2/3 116/2/3 117/2/3
f 119/1/3 118/1/3 117/1/3
f 120/1/3 118/1/3 119/1/3
f 123/3/3 122/3/3 121/3/3
f 124/3/3 122/3/3 123/3/3
f 127/1/3 126/1/3 125/1/3
f 128/1/3 126/1/3 127/1/3
f 131/2/3 130/2/3 129/2/3
f 132/2/3 130/2/3 131/2/3
f 133/2/4 134/2/4 135/2/4
f 135/2/4 134/2/4 136/2/4
f 137/1/4 138/1/4 139/1/4
f 139/1/4 138/1/4 140/1/4
f 141/4/4 142/4/4 143/4/4
f 143/4/4 142/4/4 144/4/4
f 145/1/4 146/1/4 147/1/4
f 147/1/4 146/1/4 148/1/4
f 147/2/4 148/2/4 149/2/4
f 149/2/4 148/2/4 150/2/4
f 149/1/4 150/1/4 151/1/4
f 151/1/4 150/1/4 152/1/4
f 151/2/4 152/2/4 153/2/4
f 153/2/4 152/2/4 154/2/4
f 153/1/4 154/1/4 155/1/4
f 155/1/4 154/1/4 156/1/4
f 155/2/4 156/2/4 157/2/4
f 157/2/4 156/2/4 158/2/4
f 159/3/4 160/3/4 161/3/4
f 161/3/4 160/3/4 162/3/4
f 163/4/4 164/4/4 165/4/4
f 163/4/4 165/4/4 167/4/4
f 165/3/4 166/3/4 167/3/4
f 167/3/4 166/3/4 168/3/4
f 163/4/4 167/4/4 169/4/4
f 167/4/4 168/4/4 169/4/4
f 169/4/4 168/4/4 170/4/4
f 169/5/4 170/5/4 171/5/4
f 170/4/4 168/4/4 172/4/4
f 171/5/4 170/5/4 172/5/4
f 172/4/4 168/4/4 173/4/4
f 171/4/4 172/4/4 174/4/4
f 174/4/4 172/4/4 175/4/4
f 180/4/5 177/4/5 176/4/5
f 181/5/5 178/5/5 177/5/5
f 181/4/5 177/4/5 180/4/5
f 182/5/5 181/5/5 180/5/5
f 183/5/5 181/5/5 182/5/5
f 184/4/5 183/4/5 182/4/5
f 185/5/5 181/5/5 183/5/5
f 185/4/5 183/4/5 184/4/5
f 186/5/5 185/5/5 184/5/5
f 187/5/5 181/5/5 185/5/5
f 187/5/5 185/5/5 186/5/5
f 188/4/5 187/4/5 186/4/5
f 188/5/5 181/5/5 187/5/5
f 189/5/5 181/5/5 188/5/5
f 190/4/5 188/4/5 186/4/5
f 190/4/5 189/4/5 188/4/5
f 191/5/5 181/5/5 189/5/5
f 191/4/5 189/4/5 190/4/5
f 192/4/5 179/4/5 178/4/5
f 192/5/5 181/5/5 191/5/5
f 192/5/5 178/5/5 181/5/5
f 193/4/5 179/4/5 192/4/5
f 194/4/6 195/4/6 198/4/6
f 198/4/6 195/4/6 199/4/6
f 196/4/6 197/4/6 200/4/6
f 200/4/6 197/4/6 201/4/6
f 202/4/6 203/4/6 206/4/6
f 206/4/6 203/4/6 207/4/6
f 204/4/6 205/4/6 208/4/6
f 208/4/6 205/4/6 209/4/6
f 210/4/6 211/4/6 213/4/6
f 213/4/6 211/4/6 214/4/6
f 214/4/6 211/4/6 215/4/6
f 215/4/6 211/4/6 216/4/6
f 216/4/6 211/4/6 217/4/6
f 217/4/6 211/4/6 218/4/6
f 218/4/6 211/4/6 219/4/6
f 219/4/6 211/4/6 220/4/6
f 220/4/6 211/4/6 221/4/6
f 212/4/6 213/4/6 223/4/6
f 213/3/6 214/3/6 223/3/6
f 223/3/6 214/3/6 224/3/6
f 221/3/6 222/3/6 225/3/6
f 220/3/6 221/3/6 225/3/6
f 225/3/6 222/3/6 226/3/6
f 226/3/6 222/3/6 227/3/6
f 212/4/6 223/4/6 228/4/6
f 226/4/6 227/4/6 229/4/6
f 212/4/6 228/4/6 230/4/6
f 229/4/6 227/4/6 231/4/6
f 231/4/6 227/4/6 232/4/6
f 212/4/6 230/4/6 233/4/6
f 231/3/6 232/3/6 234/3/6
f 212/4/6 233/4/6 235/4/6
f 234/3/6 232/3/6 236/3/6
f 212/4/6 235/4/6 237/4/6
f 237/4/6 235/4/6 238/4/6
f 236/3/6 232/3/6 239/3/6
f 237/3/6 238/3/6 240/3/6
f 240/3/6 238/3/6 241/3/6
f 239/3/6 232/3/6 244/3/6
f 240/4/6 241/4/6 245/4/6
f 241/3/6 242/3/6 246/3/6
f 245/4/6 241/4/6 246/4/6
f 246/3/6 242/3/6 247/3/6
f 243/3/6 244/3/6 253/3/6
f 244/3/6 232/3/6 254/3/6
f 253/3/6 244/3/6 254/3/6
f 254/3/6 232/3/6 255/3/6
f 246/3/6 247/3/6 256/3/6
f 247/3/6 248/3/6 256/3/6
f 251/4/6 252/4/6 257/4/6
f 256/3/6 248/3/6 257/3/6
f 252/4/6 253/4/6 257/4/6
f 250/4/6 251/4/6 257/4/6
f 249/4/6 250/4/6 257/4/6
f 248/4/6 249/4/6 257/4/6
f 253/4/6 254/4/6 257/4/6
f 257/4/6 254/4/6 258/4/6
f 259/2/6 260/2/6 267/2/6
f 260/1/6 261/1/6 268/1/6
f 267/2/6 260/2/6 268/2/6
f 261/2/6 262/2/6 269/2/6
f 268/1/6 261/1/6 269/1/6
f 262/1/6 263/1/6 270/1/6
f 269/2/6 262/2/6 270/2/6
f 263/2/6 264/2/6 271/2/6
f 270/1/6 263/1/6 271/1/6
f 264/1/6 265/1/6 272/1/6
f 271/2/6 264/2/6 272/2/6
f 272/1/6 265/1/6 273/1/6
f 270/1/6 271/1/6 275/1/6
f 266/1/6 267/1/6 275/1/6
f 272/1/6 273/1/6 275/1/6
f 271/1/6 272/1/6 275/1/6
f 267/1/6 268/1/6 275/1/6
f 269/1/6 270/1/6 275/1/6
f 268/1/6 269/1/6 275/1/6
f 275/1/6 273/1/6 276/1/6
f 273/2/6 274/2/6 277/2/6
f 276/1/6 273/1/6 277/1/6
f 277/2/6 274/2/6 278/2/6
f 275/2/6 276/2/6 279/2/6
f 276/1/6 277/1/6 280/1/6
f 279/2/6 276/2/6 280/2/6
f 277/1/6 278/1/6 280/1/6
f 280/1/6 278/1/6 281/1/6
f 281/1/6 278/1/6 282/1/6
f 279/1/6 280/1/6 283/1/6
f 280/1/6 281/1/6 283/1/6
f 283/1/6 281/1/6 284/1/6
f 281/2/6 282/2/6 285/2/6
f 284/1/6 281/1/6 285/1/6
f 285/2/6 282/2/6 286/2/6
f 283/2/6 284/2/6 287/2/6
f 284/1/6 285/1/6 288/1/6
f 287/2/6 284/2/6 288/2/6
f 285/1/6 286/1/6 288/1/6
f 288/1/6 286/1/6 289/1/6
f 289/1/6 286/1/6 290/1/6
f 287/1/6 288/1/6 291/1/6
f 288/1/6 289/1/6 291/1/6
f 291/1/6 289/1/6 292/1/6
f 289/2/6 290/2/6 293/2/6
f 292/1/6 289/1/6 293/1/6
f 293/2/6 290/2/6 294/2/6
f 291/2/6 292/2/6 295/2/6
f 292/1/6 293/1/6 296/1/6
f 295/2/6 292/2/6 296/2/6
f 293/1/6 294/1/6 296/1/6
f 296/1/6 294/1/6 297/1/6
f 297/1/6 294/1/6 298/1/6
f 298/1/6 294/1/6 299/1/6
f 299/1/6 294/1/6 300/1/6
f 300/1/6 294/1/6 301/1/6
f 301/1/6 294/1/6 302/1/6
f 302/1/6 294/1/6 303/1/6
f 296/1/6 297/1/6 304/1/6
f 297/2/6 298/2/6 305/2/6
f 304/1/6 297/1/6 305/1/6
f 298/1/6 299/1/6 306/1/6
f 305/2/6 298/2/6 306/2/6
f 299/2/6 300/2/6 307/2/6
f 306/1/6 299/1/6 307/1/6
f 300/1/6 301/1/6 308/1/6
f 307/2/6 300/2/6 308/2/6
f 301/2/6 302/2/6 309/2/6
f 308/1/6 301/1/6 309/1/6
f 309/2/6 302/2/6 310/2/6
