# MagicaVoxel @ Ephtracy

# group
o 

# material
mtllib wall_pillar_mid.mtl
usemtl palette

# normals
vn -1 0 0
vn 1 0 0
vn 0 0 1
vn 0 0 -1
vn 0 -1 0
vn 0 1 0

# texcoords
vt 0.107422 0.5
vt 0.115234 0.5
vt 0.123047 0.5

# verts
v -0.4 -0.5 0.3
v -0.4 -0.5 0.2
v -0.4 -0.5 0.1
v -0.4 -0.5 0
v -0.4 -0.5 -0.1
v -0.4 -0.5 -0.3
v -0.4 0.5 0.3
v -0.4 0.5 0.2
v -0.4 0.5 0.1
v -0.4 0.5 0
v -0.4 0.5 -0.1
v -0.4 0.5 -0.3
v -0.3 -0.5 0.4
v -0.3 -0.5 0.3
v -0.3 -0.5 -0.3
v -0.3 -0.5 -0.4
v -0.3 0.5 0.4
v -0.3 0.5 0.3
v -0.3 0.5 -0.3
v -0.3 0.5 -0.4
v 0.3 -0.5 0.4
v 0.3 -0.5 0.3
v 0.3 -0.5 -0.3
v 0.3 -0.5 -0.4
v 0.3 0.5 0.4
v 0.3 0.5 0.3
v 0.3 0.5 -0.3
v 0.3 0.5 -0.4
v 0.4 -0.5 0.3
v 0.4 -0.5 -0.3
v 0.4 0.5 0.3
v 0.4 0.5 -0.3
v -0.3 -0.5 0.4
v -0.3 0.5 0.4
v -0.2 -0.5 0.4
v -0.2 0.5 0.4
v -0.1 -0.5 0.4
v -0.1 0.5 0.4
v 0.1 -0.5 0.4
v 0.1 0.5 0.4
v 0.2 -0.5 0.4
v 0.2 0.5 0.4
v 0.3 -0.5 0.4
v 0.3 0.5 0.4
v -0.4 -0.5 0.3
v -0.4 0.5 0.3
v -0.3 -0.5 0.3
v -0.3 0.5 0.3
v 0.3 -0.5 0.3
v 0.3 0.5 0.3
v 0.4 -0.5 0.3
v 0.4 0.5 0.3
v -0.4 -0.5 -0.3
v -0.4 0.5 -0.3
v -0.3 -0.5 -0.3
v -0.3 0.5 -0.3
v 0.3 -0.5 -0.3
v 0.3 0.5 -0.3
v 0.4 -0.5 -0.3
v 0.4 0.5 -0.3
v -0.3 -0.5 -0.4
v -0.3 0.5 -0.4
v -0.1 -0.5 -0.4
v -0.1 0.5 -0.4
v 0 -0.5 -0.4
v 0 0.5 -0.4
v 0.1 -0.5 -0.4
v 0.1 0.5 -0.4
v 0.2 -0.5 -0.4
v 0.2 0.5 -0.4
v 0.3 -0.5 -0.4
v 0.3 0.5 -0.4
v -0.3 -0.5 0.4
v -0.2 -0.5 0.4
v -0.1 -0.5 0.4
v 0.1 -0.5 0.4
v 0.2 -0.5 0.4
v 0.3 -0.5 0.4
v -0.4 -0.5 0.3
v -0.3 -0.5 0.3
v -0.2 -0.5 0.3
v -0.1 -0.5 0.3
v 0.1 -0.5 0.3
v 0.2 -0.5 0.3
v 0.3 -0.5 0.3
v 0.4 -0.5 0.3
v -0.4 -0.5 0.2
v -0.3 -0.5 0.2
v -0.4 -0.5 0.1
v -0.3 -0.5 0.1
v -0.4 -0.5 0
v -0.3 -0.5 0
v -0.4 -0.5 -0.1
v -0.3 -0.5 -0.1
v -0.4 -0.5 -0.3
v -0.3 -0.5 -0.3
v -0.1 -0.5 -0.3
v 0 -0.5 -0.3
v 0.1 -0.5 -0.3
v 0.2 -0.5 -0.3
v 0.3 -0.5 -0.3
v 0.4 -0.5 -0.3
v -0.3 -0.5 -0.4
v -0.1 -0.5 -0.4
v 0 -0.5 -0.4
v 0.1 -0.5 -0.4
v 0.2 -0.5 -0.4
v 0.3 -0.5 -0.4
v -0.3 0.5 0.4
v -0.2 0.5 0.4
v -0.1 0.5 0.4
v 0.1 0.5 0.4
v 0.2 0.5 0.4
v 0.3 0.5 0.4
v -0.4 0.5 0.3
v -0.3 0.5 0.3
v -0.2 0.5 0.3
v -0.1 0.5 0.3
v 0.1 0.5 0.3
v 0.2 0.5 0.3
v 0.3 0.5 0.3
v 0.4 0.5 0.3
v -0.4 0.5 0.2
v -0.3 0.5 0.2
v -0.4 0.5 0.1
v -0.3 0.5 0.1
v -0.4 0.5 0
v -0.3 0.5 0
v -0.4 0.5 -0.1
v -0.3 0.5 -0.1
v -0.4 0.5 -0.3
v -0.3 0.5 -0.3
v -0.1 0.5 -0.3
v 0 0.5 -0.3
v 0.1 0.5 -0.3
v 0.2 0.5 -0.3
v 0.3 0.5 -0.3
v 0.4 0.5 -0.3
v -0.3 0.5 -0.4
v -0.1 0.5 -0.4
v 0 0.5 -0.4
v 0.1 0.5 -0.4
v 0.2 0.5 -0.4
v 0.3 0.5 -0.4

# faces
f 7/1/1 2/1/1 1/1/1
f 8/3/1 3/3/1 2/3/1
f 8/1/1 2/1/1 7/1/1
f 9/2/1 4/2/1 3/2/1
f 9/3/1 3/3/1 8/3/1
f 10/3/1 5/3/1 4/3/1
f 10/2/1 4/2/1 9/2/1
f 11/2/1 6/2/1 5/2/1
f 11/3/1 5/3/1 10/3/1
f 12/2/1 6/2/1 11/2/1
f 17/2/1 14/2/1 13/2/1
f 18/2/1 14/2/1 17/2/1
f 19/2/1 16/2/1 15/2/1
f 20/2/1 16/2/1 19/2/1
f 21/1/2 22/1/2 25/1/2
f 25/1/2 22/1/2 26/1/2
f 23/3/2 24/3/2 27/3/2
f 27/3/2 24/3/2 28/3/2
f 29/2/2 30/2/2 31/2/2
f 31/2/2 30/2/2 32/2/2
f 35/2/3 34/2/3 33/2/3
f 36/2/3 34/2/3 35/2/3
f 37/1/3 36/1/3 35/1/3
f 38/1/3 36/1/3 37/1/3
f 39/2/3 38/2/3 37/2/3
f 40/2/3 38/2/3 39/2/3
f 41/3/3 40/3/3 39/3/3
f 42/3/3 40/3/3 41/3/3
f 43/1/3 42/1/3 41/1/3
f 44/1/3 42/1/3 43/1/3
f 47/1/3 46/1/3 45/1/3
f 48/1/3 46/1/3 47/1/3
f 51/2/3 50/2/3 49/2/3
f 52/2/3 50/2/3 51/2/3
f 53/2/4 54/2/4 55/2/4
f 55/2/4 54/2/4 56/2/4
f 57/2/4 58/2/4 59/2/4
f 59/2/4 58/2/4 60/2/4
f 61/2/4 62/2/4 63/2/4
f 63/2/4 62/2/4 64/2/4
f 63/1/4 64/1/4 65/1/4
f 65/1/4 64/1/4 66/1/4
f 65/2/4 66/2/4 67/2/4
f 67/2/4 66/2/4 68/2/4
f 67/1/4 68/1/4 69/1/4
f 69/1/4 68/1/4 70/1/4
f 69/3/4 70/3/4 71/3/4
f 71/3/4 70/3/4 72/3/4
f 80/2/5 74/2/5 73/2/5
f 81/1/5 75/1/5 74/1/5
f 81/2/5 74/2/5 80/2/5
f 82/2/5 76/2/5 75/2/5
f 82/1/5 75/1/5 81/1/5
f 83/3/5 77/3/5 76/3/5
f 83/2/5 76/2/5 82/2/5
f 84/1/5 78/1/5 77/1/5
f 84/3/5 77/3/5 83/3/5
f 85/1/5 78/1/5 84/1/5
f 87/1/5 80/1/5 79/1/5
f 88/2/5 83/2/5 82/2/5
f 88/1/5 80/1/5 87/1/5
f 88/2/5 86/2/5 85/2/5
f 88/2/5 85/2/5 84/2/5
f 88/2/5 84/2/5 83/2/5
f 88/2/5 81/2/5 80/2/5
f 88/2/5 82/2/5 81/2/5
f 89/3/5 88/3/5 87/3/5
f 90/2/5 86/2/5 88/2/5
f 90/3/5 88/3/5 89/3/5
f 91/2/5 90/2/5 89/2/5
f 92/2/5 86/2/5 90/2/5
f 92/2/5 90/2/5 91/2/5
f 93/3/5 92/3/5 91/3/5
f 94/2/5 86/2/5 92/2/5
f 94/3/5 92/3/5 93/3/5
f 95/2/5 94/2/5 93/2/5
f 96/2/5 86/2/5 94/2/5
f 96/2/5 94/2/5 95/2/5
f 97/2/5 86/2/5 96/2/5
f 98/2/5 86/2/5 97/2/5
f 99/2/5 86/2/5 98/2/5
f 100/2/5 86/2/5 99/2/5
f 101/2/5 86/2/5 100/2/5
f 102/2/5 86/2/5 101/2/5
f 103/2/5 97/2/5 96/2/5
f 104/1/5 98/1/5 97/1/5
f 104/2/5 97/2/5 103/2/5
f 105/2/5 99/2/5 98/2/5
f 105/1/5 98/1/5 104/1/5
f 106/1/5 100/1/5 99/1/5
f 106/2/5 99/2/5 105/2/5
f 107/3/5 101/3/5 100/3/5
f 107/1/5 100/1/5 106/1/5
f 108/3/5 101/3/5 107/3/5
f 109/2/6 110/2/6 116/2/6
f 110/1/6 111/1/6 117/1/6
f 116/2/6 110/2/6 117/2/6
f 111/2/6 112/2/6 118/2/6
f 117/1/6 111/1/6 118/1/6
f 112/3/6 113/3/6 119/3/6
f 118/2/6 112/2/6 119/2/6
f 113/1/6 114/1/6 120/1/6
f 119/3/6 113/3/6 120/3/6
f 120/1/6 114/1/6 121/1/6
f 115/1/6 116/1/6 123/1/6
f 118/2/6 119/2/6 124/2/6
f 123/1/6 116/1/6 124/1/6
f 121/2/6 122/2/6 124/2/6
f 120/2/6 121/2/6 124/2/6
f 119/2/6 120/2/6 124/2/6
f 116/2/6 117/2/6 124/2/6
f 117/2/6 118/2/6 124/2/6
f 123/3/6 124/3/6 125/3/6
f 124/2/6 122/2/6 126/2/6
f 125/3/6 124/3/6 126/3/6
f 125/2/6 126/2/6 127/2/6
f 126/2/6 122/2/6 128/2/6
f 127/2/6 126/2/6 128/2/6
f 127/3/6 128/3/6 129/3/6
f 128/2/6 122/2/6 130/2/6
f 129/3/6 128/3/6 130/3/6
f 129/2/6 130/2/6 131/2/6
f 130/2/6 122/2/6 132/2/6
f 131/2/6 130/2/6 132/2/6
f 132/2/6 122/2/6 133/2/6
f 133/2/6 122/2/6 134/2/6
f 134/2/6 122/2/6 135/2/6
f 135/2/6 122/2/6 136/2/6
f 136/2/6 122/2/6 137/2/6
f 137/2/6 122/2/6 138/2/6
f 132/2/6 133/2/6 139/2/6
f 133/1/6 134/1/6 140/1/6
f 139/2/6 133/2/6 140/2/6
f 134/2/6 135/2/6 141/2/6
f 140/1/6 134/1/6 141/1/6
f 135/1/6 136/1/6 142/1/6
f 141/2/6 135/2/6 142/2/6
f 136/3/6 137/3/6 143/3/6
f 142/1/6 136/1/6 143/1/6
f 143/3/6 137/3/6 144/3/6
