# MagicaVoxel @ Ephtracy

# group
o 

# material
mtllib wall_short.mtl
usemtl palette

# normals
vn -1 0 0
vn 1 0 0
vn 0 0 1
vn 0 0 -1
vn 0 -1 0
vn 0 1 0

# texcoords
vt 0.0957031 0.5
vt 0.103516 0.5
vt 0.107422 0.5
vt 0.123047 0.5
vt 0.439453 0.5
vt 0.447266 0.5
vt 0.451172 0.5
vt 0.466797 0.5

# verts
v -0.2 -1 0.5
v -0.2 -1 0.1
v -0.2 -1 0
v -0.2 -1 -0.5
v -0.2 -0.9 0.5
v -0.2 -0.9 0.1
v -0.2 -0.9 0
v -0.2 -0.9 -0.1
v -0.2 -0.9 -0.4
v -0.2 -0.9 -0.5
v -0.2 -0.8 0.5
v -0.2 -0.8 -0.1
v -0.2 -0.8 -0.4
v -0.2 -0.8 -0.5
v -0.2 0.8 0.5
v -0.2 0.8 0.3
v -0.2 0.8 0.2
v -0.2 0.8 0.1
v -0.2 0.8 -0.1
v -0.2 0.8 -0.4
v -0.2 0.8 -0.5
v -0.2 0.9 0.5
v -0.2 0.9 0.3
v -0.2 0.9 0.2
v -0.2 0.9 0.1
v -0.2 0.9 -0.1
v -0.2 0.9 -0.4
v -0.2 1 0.5
v -0.2 1 -0.5
v -0.1 -0.8 0.5
v -0.1 -0.8 -0.1
v -0.1 -0.8 -0.4
v -0.1 -0.8 -0.5
v -0.1 -0.7 0.5
v -0.1 -0.7 0.4
v -0.1 -0.7 0.3
v -0.1 -0.7 -0.3
v -0.1 -0.7 -0.4
v -0.1 -0.7 -0.5
v -0.1 -0.6 0.3
v -0.1 -0.6 -0.3
v -0.1 -0.6 -0.5
v -0.1 -0.5 0.4
v -0.1 -0.5 0.3
v -0.1 -0.5 0.2
v -0.1 -0.5 0.1
v -0.1 -0.5 -0.3
v -0.1 -0.4 0.5
v -0.1 -0.4 0.4
v -0.1 -0.4 0.3
v -0.1 -0.4 0.2
v -0.1 -0.4 0.1
v -0.1 -0.4 -0.4
v -0.1 -0.3 0.5
v -0.1 -0.3 0.4
v -0.1 -0.3 0
v -0.1 -0.3 -0.3
v -0.1 -0.3 -0.4
v -0.1 -0.3 -0.5
v -0.1 -0.2 0.5
v -0.1 -0.2 0.4
v -0.1 -0.2 0.3
v -0.1 -0.2 0.2
v -0.1 -0.2 0.1
v -0.1 -0.2 0
v -0.1 -0.2 -0.3
v -0.1 -0.1 0
v -0.1 -0.1 -0.1
v -0.1 -0.1 -0.2
v -0.1 -0.1 -0.3
v -0.1 -0.1 -0.4
v -0.1 0 0.3
v -0.1 0 0.2
v -0.1 0 0.1
v -0.1 0 -0.3
v -0.1 0 -0.4
v -0.1 0.1 0.5
v -0.1 0.1 0.4
v -0.1 0.1 0.2
v -0.1 0.1 -0.1
v -0.1 0.1 -0.4
v -0.1 0.1 -0.5
v -0.1 0.2 0.5
v -0.1 0.2 0.4
v -0.1 0.2 0.3
v -0.1 0.2 0.2
v -0.1 0.2 0.1
v -0.1 0.2 -0.2
v -0.1 0.2 -0.3
v -0.1 0.2 -0.4
v -0.1 0.3 0.5
v -0.1 0.3 0.3
v -0.1 0.3 0.2
v -0.1 0.3 0.1
v -0.1 0.3 0
v -0.1 0.3 -0.1
v -0.1 0.3 -0.2
v -0.1 0.3 -0.3
v -0.1 0.3 -0.4
v -0.1 0.4 0.4
v -0.1 0.4 0.3
v -0.1 0.4 0.2
v -0.1 0.4 0.1
v -0.1 0.4 0
v -0.1 0.4 -0.1
v -0.1 0.4 -0.3
v -0.1 0.4 -0.5
v -0.1 0.5 0.5
v -0.1 0.5 0.4
v -0.1 0.5 0
v -0.1 0.5 -0.2
v -0.1 0.5 -0.5
v -0.1 0.6 0.5
v -0.1 0.6 0.4
v -0.1 0.6 0.1
v -0.1 0.6 0
v -0.1 0.6 -0.2
v -0.1 0.6 -0.5
v -0.1 0.7 0.5
v -0.1 0.7 0.1
v -0.1 0.7 0
v -0.1 0.7 -0.2
v -0.1 0.7 -0.5
v -0.1 0.8 0.5
v -0.1 0.8 0.3
v -0.1 0.8 0.2
v -0.1 0.8 0.1
v -0.1 0.8 -0.1
v -0.1 0.8 -0.4
v -0.1 0.8 -0.5
v 0.1 -0.8 0.5
v 0.1 -0.8 0.4
v 0.1 -0.8 0.3
v 0.1 -0.8 0.2
v 0.1 -0.8 0
v 0.1 -0.8 -0.4
v 0.1 -0.8 -0.5
v 0.1 -0.7 0.3
v 0.1 -0.7 0
v 0.1 -0.7 -0.5
v 0.1 -0.6 0.5
v 0.1 -0.6 0.3
v 0.1 -0.6 0
v 0.1 -0.6 -0.5
v 0.1 -0.5 0.3
v 0.1 -0.5 0
v 0.1 -0.4 0.4
v 0.1 -0.4 0.3
v 0.1 -0.4 0.1
v 0.1 -0.4 0
v 0.1 -0.4 -0.1
v 0.1 -0.4 -0.4
v 0.1 -0.4 -0.5
v 0.1 -0.3 0.4
v 0.1 -0.3 0.3
v 0.1 -0.3 0.1
v 0.1 -0.3 0
v 0.1 -0.3 -0.1
v 0.1 -0.3 -0.4
v 0.1 -0.3 -0.5
v 0.1 -0.2 0.4
v 0.1 -0.2 0.3
v 0.1 -0.2 0.2
v 0.1 -0.2 0.1
v 0.1 -0.2 0
v 0.1 -0.2 -0.1
v 0.1 -0.1 0.4
v 0.1 -0.1 0.3
v 0.1 -0.1 0.1
v 0.1 -0.1 0
v 0.1 0 0.4
v 0.1 0 0.3
v 0.1 0 0.2
v 0.1 0 0
v 0.1 0 -0.1
v 0.1 0 -0.5
v 0.1 0.1 0.5
v 0.1 0.1 0.4
v 0.1 0.1 0.3
v 0.1 0.1 -0.1
v 0.1 0.1 -0.2
v 0.1 0.1 -0.5
v 0.1 0.2 0.5
v 0.1 0.2 0.3
v 0.1 0.2 0.1
v 0.1 0.2 0
v 0.1 0.2 -0.1
v 0.1 0.3 0.5
v 0.1 0.3 0.3
v 0.1 0.3 0.1
v 0.1 0.3 0
v 0.1 0.3 -0.1
v 0.1 0.3 -0.2
v 0.1 0.3 -0.5
v 0.1 0.4 0.5
v 0.1 0.4 0.4
v 0.1 0.4 0.3
v 0.1 0.4 0.1
v 0.1 0.4 -0.1
v 0.1 0.4 -0.2
v 0.1 0.4 -0.3
v 0.1 0.4 -0.5
v 0.1 0.5 0.5
v 0.1 0.5 0.4
v 0.1 0.5 0.3
v 0.1 0.5 0
v 0.1 0.5 -0.1
v 0.1 0.5 -0.2
v 0.1 0.5 -0.3
v 0.1 0.6 0.4
v 0.1 0.6 0
v 0.1 0.6 -0.5
v 0.1 0.7 0.5
v 0.1 0.7 0
v 0.1 0.7 -0.5
v 0.1 0.8 0.5
v 0.1 0.8 0.3
v 0.1 0.8 0
v 0.1 0.8 -0.5
v 0.2 -1 0.5
v 0.2 -1 -0.5
v 0.2 -0.9 0.5
v 0.2 -0.9 0.4
v 0.2 -0.9 0.3
v 0.2 -0.9 0.2
v 0.2 -0.9 0
v 0.2 -0.9 -0.4
v 0.2 -0.8 0.5
v 0.2 -0.8 0.4
v 0.2 -0.8 0.3
v 0.2 -0.8 0.2
v 0.2 -0.8 0
v 0.2 -0.8 -0.4
v 0.2 -0.8 -0.5
v 0.2 0.8 0.5
v 0.2 0.8 0.3
v 0.2 0.8 0
v 0.2 0.8 -0.5
v 0.2 0.9 0.5
v 0.2 0.9 0.3
v 0.2 0.9 0.2
v 0.2 0.9 0.1
v 0.2 0.9 0
v 0.2 0.9 -0.5
v 0.2 1 0.5
v 0.2 1 0.2
v 0.2 1 0.1
v 0.2 1 -0.5
v -0.2 -1 0.5
v -0.2 -0.9 0.5
v -0.2 -0.8 0.5
v -0.2 0.8 0.5
v -0.2 0.9 0.5
v -0.2 1 0.5
v -0.1 -0.8 0.5
v -0.1 -0.7 0.5
v -0.1 -0.4 0.5
v -0.1 -0.3 0.5
v -0.1 -0.2 0.5
v -0.1 0.1 0.5
v -0.1 0.2 0.5
v -0.1 0.3 0.5
v -0.1 0.5 0.5
v -0.1 0.6 0.5
v -0.1 0.7 0.5
v -0.1 0.8 0.5
v -0.1 0.9 0.5
v -0.1 1 0.5
v 0 -0.8 0.5
v 0 -0.7 0.5
v 0 -0.6 0.5
v 0 -0.4 0.5
v 0 -0.3 0.5
v 0 -0.2 0.5
v 0 0.2 0.5
v 0 0.3 0.5
v 0 0.4 0.5
v 0 0.6 0.5
v 0 0.7 0.5
v 0 0.8 0.5
v 0 0.9 0.5
v 0 1 0.5
v 0.1 -0.8 0.5
v 0.1 -0.6 0.5
v 0.1 0.1 0.5
v 0.1 0.2 0.5
v 0.1 0.3 0.5
v 0.1 0.4 0.5
v 0.1 0.5 0.5
v 0.1 0.7 0.5
v 0.1 0.8 0.5
v 0.1 0.9 0.5
v 0.2 -1 0.5
v 0.2 -0.9 0.5
v 0.2 -0.8 0.5
v 0.2 0.8 0.5
v 0.2 0.9 0.5
v 0.2 1 0.5
v -0.2 -1 -0.5
v -0.2 -0.9 -0.5
v -0.2 -0.8 -0.5
v -0.2 0.8 -0.5
v -0.2 1 -0.5
v -0.1 -0.8 -0.5
v -0.1 -0.7 -0.5
v -0.1 -0.6 -0.5
v -0.1 -0.3 -0.5
v -0.1 0.1 -0.5
v -0.1 0.4 -0.5
v -0.1 0.5 -0.5
v -0.1 0.6 -0.5
v -0.1 0.7 -0.5
v -0.1 0.8 -0.5
v -0.1 0.9 -0.5
v -0.1 1 -0.5
v 0 -0.9 -0.5
v 0 -0.8 -0.5
v 0 -0.7 -0.5
v 0 -0.6 -0.5
v 0 -0.4 -0.5
v 0 -0.3 -0.5
v 0 0 -0.5
v 0 0.1 -0.5
v 0 0.3 -0.5
v 0 0.4 -0.5
v 0 0.5 -0.5
v 0 0.6 -0.5
v 0 0.7 -0.5
v 0 0.8 -0.5
v 0 0.9 -0.5
v 0 1 -0.5
v 0.1 -0.8 -0.5
v 0.1 -0.7 -0.5
v 0.1 -0.6 -0.5
v 0.1 -0.4 -0.5
v 0.1 -0.3 -0.5
v 0.1 0 -0.5
v 0.1 0.1 -0.5
v 0.1 0.3 -0.5
v 0.1 0.4 -0.5
v 0.1 0.6 -0.5
v 0.1 0.7 -0.5
v 0.1 0.8 -0.5
v 0.2 -1 -0.5
v 0.2 -0.8 -0.5
v 0.2 0.8 -0.5
v 0.2 0.9 -0.5
v 0.2 1 -0.5
v -0.2 -1 0.5
v 0.2 -1 0.5
v -0.2 -1 0.1
v -0.1 -1 0.1
v -0.2 -1 0
v -0.1 -1 0
v -0.2 -1 -0.5
v 0.2 -1 -0.5
v -0.2 0.8 0.5
v -0.1 0.8 0.5
v 0.1 0.8 0.5
v 0.2 0.8 0.5
v -0.2 0.8 0.3
v -0.1 0.8 0.3
v 0.1 0.8 0.3
v 0.2 0.8 0.3
v -0.2 0.8 0.2
v -0.1 0.8 0.2
v -0.2 0.8 0.1
v -0.1 0.8 0.1
v 0.1 0.8 0
v 0.2 0.8 0
v -0.2 0.8 -0.1
v -0.1 0.8 -0.1
v -0.2 0.8 -0.4
v -0.1 0.8 -0.4
v -0.2 0.8 -0.5
v -0.1 0.8 -0.5
v 0.1 0.8 -0.5
v 0.2 0.8 -0.5
v -0.2 -0.8 0.5
v -0.1 -0.8 0.5
v 0.1 -0.8 0.5
v 0.2 -0.8 0.5
v 0.1 -0.8 0.4
v 0.2 -0.8 0.4
v 0.1 -0.8 0.3
v 0.2 -0.8 0.3
v 0.1 -0.8 0.2
v 0.2 -0.8 0.2
v 0.1 -0.8 0
v 0.2 -0.8 0
v -0.2 -0.8 -0.1
v -0.1 -0.8 -0.1
v -0.2 -0.8 -0.4
v -0.1 -0.8 -0.4
v 0.1 -0.8 -0.4
v 0.2 -0.8 -0.4
v -0.2 -0.8 -0.5
v -0.1 -0.8 -0.5
v 0.1 -0.8 -0.5
v 0.2 -0.8 -0.5
v -0.2 1 0.5
v -0.1 1 0.5
v 0 1 0.5
v 0.2 1 0.5
v 0 1 0.4
v 0.1 1 0.4
v -0.1 1 0.2
v 0.1 1 0.2
v 0.2 1 0.2
v 0 1 0.1
v 0.1 1 0.1
v 0.2 1 0.1
v 0 1 0
v 0.1 1 0
v -0.1 1 -0.2
v 0.1 1 -0.2
v -0.1 1 -0.3
v 0 1 -0.3
v -0.1 1 -0.4
v 0 1 -0.4
v 0.1 1 -0.4
v -0.2 1 -0.5
v -0.1 1 -0.5
v 0 1 -0.5
v 0.2 1 -0.5

# faces
f 5/6/1 2/6/1 1/6/1
f 6/8/1 3/8/1 2/8/1
f 6/6/1 2/6/1 5/6/1
f 7/6/1 4/6/1 3/6/1
f 7/8/1 3/8/1 6/8/1
f 8/6/1 4/6/1 7/6/1
f 9/6/1 4/6/1 8/6/1
f 10/6/1 4/6/1 9/6/1
f 11/5/1 6/5/1 5/5/1
f 11/5/1 7/5/1 6/5/1
f 11/5/1 8/5/1 7/5/1
f 12/6/1 9/6/1 8/6/1
f 12/5/1 8/5/1 11/5/1
f 13/5/1 10/5/1 9/5/1
f 13/6/1 9/6/1 12/6/1
f 14/5/1 10/5/1 13/5/1
f 22/5/1 16/5/1 15/5/1
f 23/7/1 17/7/1 16/7/1
f 23/5/1 16/5/1 22/5/1
f 24/5/1 18/5/1 17/5/1
f 24/7/1 17/7/1 23/7/1
f 25/7/1 19/7/1 18/7/1
f 25/5/1 18/5/1 24/5/1
f 26/5/1 20/5/1 19/5/1
f 26/7/1 19/7/1 25/7/1
f 27/7/1 21/7/1 20/7/1
f 27/5/1 20/5/1 26/5/1
f 28/7/1 26/7/1 25/7/1
f 28/7/1 23/7/1 22/7/1
f 28/7/1 27/7/1 26/7/1
f 28/7/1 25/7/1 24/7/1
f 28/7/1 24/7/1 23/7/1
f 29/7/1 21/7/1 27/7/1
f 29/7/1 27/7/1 28/7/1
f 34/1/1 31/1/1 30/1/1
f 34/1/1 32/1/1 31/1/1
f 35/1/1 32/1/1 34/1/1
f 36/1/1 32/1/1 35/1/1
f 37/1/1 32/1/1 36/1/1
f 38/3/1 33/3/1 32/3/1
f 38/1/1 32/1/1 37/1/1
f 39/3/1 33/3/1 38/3/1
f 40/4/1 37/4/1 36/4/1
f 40/1/1 36/1/1 35/1/1
f 41/1/1 39/1/1 38/1/1
f 41/4/1 37/4/1 40/4/1
f 41/1/1 38/1/1 37/1/1
f 42/1/1 39/1/1 41/1/1
f 43/3/1 35/3/1 34/3/1
f 43/1/1 40/1/1 35/1/1
f 43/1/1 41/1/1 40/1/1
f 44/1/1 41/1/1 43/1/1
f 45/1/1 41/1/1 44/1/1
f 46/1/1 41/1/1 45/1/1
f 47/4/1 42/4/1 41/4/1
f 47/1/1 41/1/1 46/1/1
f 48/3/1 43/3/1 34/3/1
f 48/3/1 44/3/1 43/3/1
f 49/3/1 44/3/1 48/3/1
f 50/2/1 45/2/1 44/2/1
f 50/3/1 44/3/1 49/3/1
f 51/1/1 46/1/1 45/1/1
f 51/2/1 45/2/1 50/2/1
f 52/4/1 47/4/1 46/4/1
f 52/1/1 46/1/1 51/1/1
f 53/4/1 42/4/1 47/4/1
f 53/4/1 47/4/1 52/4/1
f 54/4/1 49/4/1 48/4/1
f 55/2/1 50/2/1 49/2/1
f 55/4/1 49/4/1 54/4/1
f 56/1/1 52/1/1 51/1/1
f 56/1/1 51/1/1 50/1/1
f 56/1/1 53/1/1 52/1/1
f 57/1/1 53/1/1 56/1/1
f 58/4/1 42/4/1 53/4/1
f 58/1/1 53/1/1 57/1/1
f 59/4/1 42/4/1 58/4/1
f 60/1/1 55/1/1 54/1/1
f 61/2/1 50/2/1 55/2/1
f 61/1/1 55/1/1 60/1/1
f 62/1/1 56/1/1 50/1/1
f 62/2/1 50/2/1 61/2/1
f 63/1/1 56/1/1 62/1/1
f 64/1/1 56/1/1 63/1/1
f 65/4/1 57/4/1 56/4/1
f 65/1/1 56/1/1 64/1/1
f 66/2/1 58/2/1 57/2/1
f 66/4/1 57/4/1 65/4/1
f 66/2/1 59/2/1 58/2/1
f 67/4/1 65/4/1 64/4/1
f 67/1/1 66/1/1 65/1/1
f 68/1/1 66/1/1 67/1/1
f 69/1/1 66/1/1 68/1/1
f 70/2/1 59/2/1 66/2/1
f 70/1/1 66/1/1 69/1/1
f 71/2/1 59/2/1 70/2/1
f 72/4/1 63/4/1 62/4/1
f 72/2/1 62/2/1 61/2/1
f 73/1/1 64/1/1 63/1/1
f 73/4/1 63/4/1 72/4/1
f 74/4/1 67/4/1 64/4/1
f 74/1/1 64/1/1 73/1/1
f 74/4/1 68/4/1 67/4/1
f 75/4/1 71/4/1 70/4/1
f 75/4/1 70/4/1 69/4/1
f 76/2/1 59/2/1 71/2/1
f 76/4/1 71/4/1 75/4/1
f 77/4/1 61/4/1 60/4/1
f 78/2/1 72/2/1 61/2/1
f 78/4/1 61/4/1 77/4/1
f 79/1/1 73/1/1 72/1/1
f 79/4/1 74/4/1 73/4/1
f 80/1/1 69/1/1 68/1/1
f 80/4/1 74/4/1 79/4/1
f 80/4/1 68/4/1 74/4/1
f 81/2/1 59/2/1 76/2/1
f 81/2/1 76/2/1 75/2/1
f 82/2/1 59/2/1 81/2/1
f 83/1/1 78/1/1 77/1/1
f 84/2/1 72/2/1 78/2/1
f 84/1/1 78/1/1 83/1/1
f 85/1/1 79/1/1 72/1/1
f 85/2/1 72/2/1 84/2/1
f 85/1/1 80/1/1 79/1/1
f 86/1/1 80/1/1 85/1/1
f 87/1/1 80/1/1 86/1/1
f 88/1/1 69/1/1 80/1/1
f 88/1/1 80/1/1 87/1/1
f 88/4/1 75/4/1 69/4/1
f 89/2/1 81/2/1 75/2/1
f 89/4/1 75/4/1 88/4/1
f 90/4/1 82/4/1 81/4/1
f 90/2/1 81/2/1 89/2/1
f 91/3/1 84/3/1 83/3/1
f 91/3/1 85/3/1 84/3/1
f 92/1/1 86/1/1 85/1/1
f 92/3/1 85/3/1 91/3/1
f 93/3/1 87/3/1 86/3/1
f 93/1/1 86/1/1 92/1/1
f 94/1/1 88/1/1 87/1/1
f 94/3/1 87/3/1 93/3/1
f 95/1/1 88/1/1 94/1/1
f 96/1/1 88/1/1 95/1/1
f 97/2/1 89/2/1 88/2/1
f 97/1/1 88/1/1 96/1/1
f 98/1/1 90/1/1 89/1/1
f 98/2/1 89/2/1 97/2/1
f 99/4/1 82/4/1 90/4/1
f 99/1/1 90/1/1 98/1/1
f 100/4/1 92/4/1 91/4/1
f 101/1/1 93/1/1 92/1/1
f 101/4/1 92/4/1 100/4/1
f 102/4/1 94/4/1 93/4/1
f 102/1/1 93/1/1 101/1/1
f 103/1/1 95/1/1 94/1/1
f 103/4/1 94/4/1 102/4/1
f 104/4/1 96/4/1 95/4/1
f 104/1/1 95/1/1 103/1/1
f 105/1/1 98/1/1 97/1/1
f 105/4/1 96/4/1 104/4/1
f 105/1/1 97/1/1 96/1/1
f 106/4/1 99/4/1 98/4/1
f 106/1/1 98/1/1 105/1/1
f 107/4/1 82/4/1 99/4/1
f 107/4/1 99/4/1 106/4/1
f 108/4/1 100/4/1 91/4/1
f 109/1/1 106/1/1 105/1/1
f 109/4/1 100/4/1 108/4/1
f 109/1/1 104/1/1 103/1/1
f 109/1/1 107/1/1 106/1/1
f 109/1/1 102/1/1 101/1/1
f 109/1/1 101/1/1 100/1/1
f 109/1/1 105/1/1 104/1/1
f 109/1/1 103/1/1 102/1/1
f 110/1/1 107/1/1 109/1/1
f 111/1/1 107/1/1 110/1/1
f 112/1/1 107/1/1 111/1/1
f 113/1/1 109/1/1 108/1/1
f 114/4/1 110/4/1 109/4/1
f 114/1/1 109/1/1 113/1/1
f 115/4/1 110/4/1 114/4/1
f 116/1/1 111/1/1 110/1/1
f 116/4/1 110/4/1 115/4/1
f 117/4/1 112/4/1 111/4/1
f 117/1/1 111/1/1 116/1/1
f 118/4/1 112/4/1 117/4/1
f 119/4/1 115/4/1 114/4/1
f 119/4/1 114/4/1 113/4/1
f 120/1/1 116/1/1 115/1/1
f 120/4/1 115/4/1 119/4/1
f 121/4/1 117/4/1 116/4/1
f 121/1/1 116/1/1 120/1/1
f 122/1/1 118/1/1 117/1/1
f 122/4/1 117/4/1 121/4/1
f 123/1/1 118/1/1 122/1/1
f 124/3/1 121/3/1 120/3/1
f 124/3/1 120/3/1 119/3/1
f 124/3/1 123/3/1 122/3/1
f 124/3/1 122/3/1 121/3/1
f 125/3/1 123/3/1 124/3/1
f 126/3/1 123/3/1 125/3/1
f 127/3/1 123/3/1 126/3/1
f 128/3/1 123/3/1 127/3/1
f 129/3/1 123/3/1 128/3/1
f 130/3/1 123/3/1 129/3/1
f 131/3/2 132/3/2 138/3/2
f 136/3/2 137/3/2 138/3/2
f 135/3/2 136/3/2 138/3/2
f 134/3/2 135/3/2 138/3/2
f 133/3/2 134/3/2 138/3/2
f 132/3/2 133/3/2 138/3/2
f 138/3/2 137/3/2 139/3/2
f 139/3/2 137/3/2 140/3/2
f 131/3/2 138/3/2 141/3/2
f 138/1/2 139/1/2 142/1/2
f 141/3/2 138/3/2 142/3/2
f 139/4/2 140/4/2 143/4/2
f 142/1/2 139/1/2 143/1/2
f 143/4/2 140/4/2 144/4/2
f 141/4/2 142/4/2 145/4/2
f 142/4/2 143/4/2 145/4/2
f 143/1/2 144/1/2 146/1/2
f 145/4/2 143/4/2 146/4/2
f 141/4/2 145/4/2 147/4/2
f 145/3/2 146/3/2 148/3/2
f 147/4/2 145/4/2 148/4/2
f 148/3/2 146/3/2 149/3/2
f 146/1/2 144/1/2 150/1/2
f 149/3/2 146/3/2 150/3/2
f 150/1/2 144/1/2 151/1/2
f 151/1/2 144/1/2 152/1/2
f 152/1/2 144/1/2 153/1/2
f 148/1/2 149/1/2 154/1/2
f 141/4/2 147/4/2 154/4/2
f 147/1/2 148/1/2 154/1/2
f 154/1/2 149/1/2 155/1/2
f 149/3/2 150/3/2 156/3/2
f 155/1/2 149/1/2 156/1/2
f 150/3/2 151/3/2 156/3/2
f 156/3/2 151/3/2 157/3/2
f 151/1/2 152/1/2 158/1/2
f 157/3/2 151/3/2 158/3/2
f 152/3/2 153/3/2 159/3/2
f 158/1/2 152/1/2 159/1/2
f 159/3/2 153/3/2 160/3/2
f 154/4/2 155/4/2 161/4/2
f 141/4/2 154/4/2 161/4/2
f 156/1/2 157/1/2 162/1/2
f 161/4/2 155/4/2 162/4/2
f 155/1/2 156/1/2 162/1/2
f 162/1/2 157/1/2 163/1/2
f 163/1/2 157/1/2 164/1/2
f 157/4/2 158/4/2 165/4/2
f 164/1/2 157/1/2 165/1/2
f 159/4/2 160/4/2 165/4/2
f 158/4/2 159/4/2 165/4/2
f 165/4/2 160/4/2 166/4/2
f 141/4/2 161/4/2 167/4/2
f 162/1/2 163/1/2 167/1/2
f 161/1/2 162/1/2 167/1/2
f 167/1/2 163/1/2 168/1/2
f 163/4/2 164/4/2 169/4/2
f 165/1/2 166/1/2 169/1/2
f 164/1/2 165/1/2 169/1/2
f 169/1/2 166/1/2 170/1/2
f 167/4/2 168/4/2 171/4/2
f 141/4/2 167/4/2 171/4/2
f 168/1/2 163/1/2 172/1/2
f 171/4/2 168/4/2 172/4/2
f 169/4/2 170/4/2 173/4/2
f 172/1/2 163/1/2 173/1/2
f 163/4/2 169/4/2 173/4/2
f 170/1/2 166/1/2 174/1/2
f 173/4/2 170/4/2 174/4/2
f 166/4/2 160/4/2 175/4/2
f 174/1/2 166/1/2 175/1/2
f 175/4/2 160/4/2 176/4/2
f 141/4/2 171/4/2 177/4/2
f 171/3/2 172/3/2 178/3/2
f 177/4/2 171/4/2 178/4/2
f 173/1/2 174/1/2 179/1/2
f 178/3/2 172/3/2 179/3/2
f 172/1/2 173/1/2 179/1/2
f 175/1/2 176/1/2 179/1/2
f 174/1/2 175/1/2 179/1/2
f 179/1/2 176/1/2 180/1/2
f 180/1/2 176/1/2 181/1/2
f 181/1/2 176/1/2 182/1/2
f 177/1/2 178/1/2 183/1/2
f 178/1/2 179/1/2 183/1/2
f 179/4/2 180/4/2 184/4/2
f 183/1/2 179/1/2 184/1/2
f 184/4/2 180/4/2 185/4/2
f 185/4/2 180/4/2 186/4/2
f 180/1/2 181/1/2 187/1/2
f 186/4/2 180/4/2 187/4/2
f 183/4/2 184/4/2 188/4/2
f 184/3/2 185/3/2 189/3/2
f 188/4/2 184/4/2 189/4/2
f 185/4/2 186/4/2 190/4/2
f 189/3/2 185/3/2 190/3/2
f 186/3/2 187/3/2 191/3/2
f 190/4/2 186/4/2 191/4/2
f 187/1/2 181/1/2 192/1/2
f 191/3/2 187/3/2 192/3/2
f 181/4/2 182/4/2 193/4/2
f 192/1/2 181/1/2 193/1/2
f 193/4/2 182/4/2 194/4/2
f 188/1/2 189/1/2 195/1/2
f 189/1/2 190/1/2 195/1/2
f 195/1/2 190/1/2 196/1/2
f 196/1/2 190/1/2 197/1/2
f 191/4/2 192/4/2 198/4/2
f 197/1/2 190/1/2 198/1/2
f 190/4/2 191/4/2 198/4/2
f 193/1/2 194/1/2 199/1/2
f 198/4/2 192/4/2 199/4/2
f 192/1/2 193/1/2 199/1/2
f 199/1/2 194/1/2 200/1/2
f 200/1/2 194/1/2 201/1/2
f 201/1/2 194/1/2 202/1/2
f 195/4/2 196/4/2 203/4/2
f 196/1/2 197/1/2 204/1/2
f 203/4/2 196/4/2 204/4/2
f 197/4/2 198/4/2 205/4/2
f 204/1/2 197/1/2 205/1/2
f 198/4/2 199/4/2 205/4/2
f 205/4/2 199/4/2 206/4/2
f 199/3/2 200/3/2 207/3/2
f 206/4/2 199/4/2 207/4/2
f 200/1/2 201/1/2 208/1/2
f 207/3/2 200/3/2 208/3/2
f 201/3/2 202/3/2 209/3/2
f 208/1/2 201/1/2 209/1/2
f 203/1/2 204/1/2 210/1/2
f 205/4/2 206/4/2 210/4/2
f 204/4/2 205/4/2 210/4/2
f 207/3/2 208/3/2 211/3/2
f 210/4/2 206/4/2 211/4/2
f 208/3/2 209/3/2 211/3/2
f 206/3/2 207/3/2 211/3/2
f 209/3/2 202/3/2 212/3/2
f 211/3/2 209/3/2 212/3/2
f 210/1/2 211/1/2 213/1/2
f 203/1/2 210/1/2 213/1/2
f 211/4/2 212/4/2 214/4/2
f 213/1/2 211/1/2 214/1/2
f 214/4/2 212/4/2 215/4/2
f 213/3/2 214/3/2 216/3/2
f 214/3/2 215/3/2 216/3/2
f 216/3/2 215/3/2 217/3/2
f 217/3/2 215/3/2 218/3/2
f 218/3/2 215/3/2 219/3/2
f 220/6/2 221/6/2 222/6/2
f 222/6/2 221/6/2 223/6/2
f 223/6/2 221/6/2 224/6/2
f 224/6/2 221/6/2 225/6/2
f 225/6/2 221/6/2 226/6/2
f 226/6/2 221/6/2 227/6/2
f 222/5/2 223/5/2 228/5/2
f 223/6/2 224/6/2 229/6/2
f 228/5/2 223/5/2 229/5/2
f 224/5/2 225/5/2 230/5/2
f 229/6/2 224/6/2 230/6/2
f 225/6/2 226/6/2 231/6/2
f 230/5/2 225/5/2 231/5/2
f 226/5/2 227/5/2 232/5/2
f 231/6/2 226/6/2 232/6/2
f 227/6/2 221/6/2 233/6/2
f 232/5/2 227/5/2 233/5/2
f 233/6/2 221/6/2 234/6/2
f 235/5/2 236/5/2 239/5/2
f 236/7/2 237/7/2 240/7/2
f 239/5/2 236/5/2 240/5/2
f 240/7/2 237/7/2 241/7/2
f 241/7/2 237/7/2 242/7/2
f 237/5/2 238/5/2 243/5/2
f 242/7/2 237/7/2 243/7/2
f 243/5/2 238/5/2 244/5/2
f 239/7/2 240/7/2 245/7/2
f 240/7/2 241/7/2 245/7/2
f 241/8/2 242/8/2 246/8/2
f 245/7/2 241/7/2 246/7/2
f 243/7/2 244/7/2 247/7/2
f 246/8/2 242/8/2 247/8/2
f 242/7/2 243/7/2 247/7/2
f 247/7/2 244/7/2 248/7/2
f 255/5/3 251/5/3 250/5/3
f 266/5/3 253/5/3 252/5/3
f 267/7/3 254/7/3 253/7/3
f 267/5/3 253/5/3 266/5/3
f 268/7/3 254/7/3 267/7/3
f 269/5/3 255/5/3 250/5/3
f 269/1/3 256/1/3 255/1/3
f 270/3/3 257/3/3 256/3/3
f 270/1/3 256/1/3 269/1/3
f 271/3/3 257/3/3 270/3/3
f 272/4/3 258/4/3 257/4/3
f 272/3/3 257/3/3 271/3/3
f 273/1/3 259/1/3 258/1/3
f 273/4/3 258/4/3 272/4/3
f 274/4/3 260/4/3 259/4/3
f 274/1/3 259/1/3 273/1/3
f 275/1/3 261/1/3 260/1/3
f 275/3/3 262/3/3 261/3/3
f 276/4/3 263/4/3 262/4/3
f 276/3/3 262/3/3 275/3/3
f 277/4/3 263/4/3 276/4/3
f 278/4/3 265/4/3 264/4/3
f 278/1/3 264/1/3 263/1/3
f 279/3/3 266/3/3 265/3/3
f 279/4/3 265/4/3 278/4/3
f 280/5/3 267/5/3 266/5/3
f 280/3/3 266/3/3 279/3/3
f 281/8/3 268/8/3 267/8/3
f 281/5/3 267/5/3 280/5/3
f 282/8/3 268/8/3 281/8/3
f 283/5/3 269/5/3 250/5/3
f 283/3/3 271/3/3 270/3/3
f 283/3/3 270/3/3 269/3/3
f 284/4/3 272/4/3 271/4/3
f 284/3/3 271/3/3 283/3/3
f 284/4/3 273/4/3 272/4/3
f 284/4/3 274/4/3 273/4/3
f 285/4/3 260/4/3 274/4/3
f 285/4/3 274/4/3 284/4/3
f 285/1/3 275/1/3 260/1/3
f 286/4/3 276/4/3 275/4/3
f 286/1/3 275/1/3 285/1/3
f 287/1/3 277/1/3 276/1/3
f 287/4/3 276/4/3 286/4/3
f 288/4/3 263/4/3 277/4/3
f 288/1/3 277/1/3 287/1/3
f 289/1/3 278/1/3 263/1/3
f 289/4/3 263/4/3 288/4/3
f 289/1/3 279/1/3 278/1/3
f 290/3/3 280/3/3 279/3/3
f 290/1/3 279/1/3 289/1/3
f 291/7/3 282/7/3 281/7/3
f 291/3/3 280/3/3 290/3/3
f 291/7/3 281/7/3 280/7/3
f 292/7/3 282/7/3 291/7/3
f 293/6/3 250/6/3 249/6/3
f 294/5/3 283/5/3 250/5/3
f 294/6/3 250/6/3 293/6/3
f 295/5/3 283/5/3 294/5/3
f 296/5/3 292/5/3 291/5/3
f 297/7/3 282/7/3 292/7/3
f 297/5/3 292/5/3 296/5/3
f 298/7/3 282/7/3 297/7/3
f 300/5/4 301/5/4 304/5/4
f 302/7/4 303/7/4 313/7/4
f 313/7/4 303/7/4 314/7/4
f 314/7/4 303/7/4 315/7/4
f 299/6/4 300/6/4 316/6/4
f 300/5/4 304/5/4 316/5/4
f 304/3/4 305/3/4 317/3/4
f 316/5/4 304/5/4 317/5/4
f 305/1/4 306/1/4 318/1/4
f 317/3/4 305/3/4 318/3/4
f 306/4/4 307/4/4 319/4/4
f 318/1/4 306/1/4 319/1/4
f 319/4/4 307/4/4 320/4/4
f 307/2/4 308/2/4 321/2/4
f 320/4/4 307/4/4 321/4/4
f 321/2/4 308/2/4 322/2/4
f 308/4/4 309/4/4 323/4/4
f 322/2/4 308/2/4 323/2/4
f 323/4/4 309/4/4 324/4/4
f 309/1/4 310/1/4 325/1/4
f 324/4/4 309/4/4 325/4/4
f 310/4/4 311/4/4 326/4/4
f 325/1/4 310/1/4 326/1/4
f 311/1/4 312/1/4 327/1/4
f 326/4/4 311/4/4 327/4/4
f 312/3/4 313/3/4 328/3/4
f 327/1/4 312/1/4 328/1/4
f 313/7/4 314/7/4 329/7/4
f 328/3/4 313/3/4 329/3/4
f 314/8/4 315/8/4 330/8/4
f 329/7/4 314/7/4 330/7/4
f 330/8/4 315/8/4 331/8/4
f 316/6/4 317/6/4 332/6/4
f 317/3/4 318/3/4 332/3/4
f 318/4/4 319/4/4 333/4/4
f 332/3/4 318/3/4 333/3/4
f 319/1/4 320/1/4 334/1/4
f 333/4/4 319/4/4 334/4/4
f 320/3/4 321/3/4 335/3/4
f 334/1/4 320/1/4 335/1/4
f 321/4/4 322/4/4 336/4/4
f 335/3/4 321/3/4 336/3/4
f 322/1/4 323/1/4 337/1/4
f 336/4/4 322/4/4 337/4/4
f 323/4/4 324/4/4 338/4/4
f 337/1/4 323/1/4 338/1/4
f 324/1/4 325/1/4 339/1/4
f 338/4/4 324/4/4 339/4/4
f 325/3/4 326/3/4 340/3/4
f 339/1/4 325/1/4 340/1/4
f 326/3/4 327/3/4 340/3/4
f 327/4/4 328/4/4 341/4/4
f 340/3/4 327/3/4 341/3/4
f 328/3/4 329/3/4 342/3/4
f 341/4/4 328/4/4 342/4/4
f 329/5/4 330/5/4 343/5/4
f 342/3/4 329/3/4 343/3/4
f 316/6/4 332/6/4 344/6/4
f 299/6/4 316/6/4 344/6/4
f 344/6/4 332/6/4 345/6/4
f 343/5/4 330/5/4 346/5/4
f 330/7/4 331/7/4 347/7/4
f 346/5/4 330/5/4 347/5/4
f 347/7/4 331/7/4 348/7/4
f 351/6/5 350/6/5 349/6/5
f 352/6/5 350/6/5 351/6/5
f 353/8/5 352/8/5 351/8/5
f 354/6/5 350/6/5 352/6/5
f 354/8/5 352/8/5 353/8/5
f 355/6/5 354/6/5 353/6/5
f 356/6/5 350/6/5 354/6/5
f 356/6/5 354/6/5 355/6/5
f 361/5/5 358/5/5 357/5/5
f 362/5/5 358/5/5 361/5/5
f 363/5/5 360/5/5 359/5/5
f 364/5/5 360/5/5 363/5/5
f 365/7/5 362/7/5 361/7/5
f 366/7/5 362/7/5 365/7/5
f 367/5/5 366/5/5 365/5/5
f 368/5/5 366/5/5 367/5/5
f 369/7/5 364/7/5 363/7/5
f 370/7/5 364/7/5 369/7/5
f 371/7/5 368/7/5 367/7/5
f 372/7/5 368/7/5 371/7/5
f 373/5/5 372/5/5 371/5/5
f 374/5/5 372/5/5 373/5/5
f 375/7/5 374/7/5 373/7/5
f 376/7/5 374/7/5 375/7/5
f 377/5/5 370/5/5 369/5/5
f 378/5/5 370/5/5 377/5/5
f 381/5/6 382/5/6 383/5/6
f 383/5/6 382/5/6 384/5/6
f 383/6/6 384/6/6 385/6/6
f 385/6/6 384/6/6 386/6/6
f 385/5/6 386/5/6 387/5/6
f 387/5/6 386/5/6 388/5/6
f 387/6/6 388/6/6 389/6/6
f 389/6/6 388/6/6 390/6/6
f 379/5/6 380/5/6 391/5/6
f 391/5/6 380/5/6 392/5/6
f 391/6/6 392/6/6 393/6/6
f 393/6/6 392/6/6 394/6/6
f 389/5/6 390/5/6 395/5/6
f 395/5/6 390/5/6 396/5/6
f 393/5/6 394/5/6 397/5/6
f 397/5/6 394/5/6 398/5/6
f 395/6/6 396/6/6 399/6/6
f 399/6/6 396/6/6 400/6/6
f 402/8/6 403/8/6 405/8/6
f 403/7/6 404/7/6 405/7/6
f 405/7/6 404/7/6 406/7/6
f 401/7/6 402/7/6 407/7/6
f 402/8/6 405/8/6 407/8/6
f 405/8/6 406/8/6 407/8/6
f 406/7/6 404/7/6 408/7/6
f 407/8/6 406/8/6 408/8/6
f 408/7/6 404/7/6 409/7/6
f 407/7/6 408/7/6 410/7/6
f 408/8/6 409/8/6 411/8/6
f 410/7/6 408/7/6 411/7/6
f 411/8/6 409/8/6 412/8/6
f 407/7/6 410/7/6 413/7/6
f 410/8/6 411/8/6 413/8/6
f 411/7/6 412/7/6 414/7/6
f 413/8/6 411/8/6 414/8/6
f 401/7/6 407/7/6 415/7/6
f 407/7/6 413/7/6 415/7/6
f 413/7/6 414/7/6 415/7/6
f 414/7/6 412/7/6 416/7/6
f 415/7/6 414/7/6 416/7/6
f 401/7/6 415/7/6 417/7/6
f 415/8/6 416/8/6 417/8/6
f 417/8/6 416/8/6 418/8/6
f 401/7/6 417/7/6 419/7/6
f 417/7/6 418/7/6 419/7/6
f 418/8/6 416/8/6 420/8/6
f 419/7/6 418/7/6 420/7/6
f 416/7/6 412/7/6 421/7/6
f 420/8/6 416/8/6 421/8/6
f 401/7/6 419/7/6 422/7/6
f 419/8/6 420/8/6 423/8/6
f 422/7/6 419/7/6 423/7/6
f 420/7/6 421/7/6 424/7/6
f 423/8/6 420/8/6 424/8/6
f 421/7/6 412/7/6 425/7/6
f 424/7/6 421/7/6 425/7/6
