# MagicaVoxel @ Ephtracy

# group
o 

# material
mtllib wall_short_corner.mtl
usemtl palette

# normals
vn -1 0 0
vn 1 0 0
vn 0 0 1
vn 0 0 -1
vn 0 -1 0
vn 0 1 0

# texcoords
vt 0.0957031 0.5
vt 0.107422 0.5
vt 0.123047 0.5
vt 0.439453 0.5
vt 0.447266 0.5
vt 0.451172 0.5
vt 0.455078 0.5
vt 0.466797 0.5

# verts
v -0.2 -1 0.2
v -0.2 -1 0.1
v -0.2 -1 -0.2
v -0.2 -0.9 0.1
v -0.2 -0.9 0
v -0.2 -0.9 -0.2
v -0.2 -0.8 0.2
v -0.2 -0.8 0
v -0.2 -0.8 -0.2
v -0.2 0.8 0.2
v -0.2 0.8 0.1
v -0.2 0.8 -0.2
v -0.2 0.9 0.2
v -0.2 0.9 0.1
v -0.2 1 0.2
v -0.2 1 0.1
v -0.2 1 -0.2
v -0.1 -0.8 0.1
v -0.1 -0.8 0
v -0.1 -0.8 -0.1
v -0.1 -0.7 0.1
v -0.1 -0.7 0
v -0.1 -0.6 0
v -0.1 -0.6 -0.1
v -0.1 -0.5 0.1
v -0.1 -0.5 0
v -0.1 -0.3 0.1
v -0.1 -0.3 0
v -0.1 -0.3 -0.1
v -0.1 -0.2 0.1
v -0.1 -0.2 0
v -0.1 -0.2 -0.1
v -0.1 -0.1 0.1
v -0.1 -0.1 0
v -0.1 0 0.1
v -0.1 0 0
v -0.1 0 -0.1
v -0.1 0.1 0.1
v -0.1 0.1 0
v -0.1 0.1 -0.1
v -0.1 0.2 0.1
v -0.1 0.2 0
v -0.1 0.3 0.1
v -0.1 0.3 0
v -0.1 0.4 0.1
v -0.1 0.4 0
v -0.1 0.5 0.1
v -0.1 0.5 0
v -0.1 0.5 -0.1
v -0.1 0.6 0.1
v -0.1 0.6 0
v -0.1 0.7 0.1
v -0.1 0.7 0
v -0.1 0.7 -0.1
v -0.1 0.8 0.1
v -0.1 0.8 0
v -0.1 0.8 -0.1
v 0.1 -0.8 0.1
v 0.1 -0.8 0
v 0.1 -0.8 -0.1
v 0.1 -0.7 0.1
v 0.1 -0.7 -0.1
v 0.1 -0.6 0
v 0.1 -0.6 -0.1
v 0.1 -0.5 0.1
v 0.1 -0.5 0
v 0.1 -0.3 0.1
v 0.1 -0.3 -0.1
v 0.1 -0.2 0.1
v 0.1 -0.2 0
v 0.1 -0.1 0.1
v 0.1 -0.1 0
v 0.1 -0.1 -0.1
v 0.1 0 0.1
v 0.1 0 -0.1
v 0.1 0.1 0.1
v 0.1 0.1 0
v 0.1 0.2 0.1
v 0.1 0.2 0
v 0.1 0.2 -0.1
v 0.1 0.3 0
v 0.1 0.3 -0.1
v 0.1 0.4 0.1
v 0.1 0.4 0
v 0.1 0.4 -0.1
v 0.1 0.5 0.1
v 0.1 0.5 0
v 0.1 0.5 -0.1
v 0.1 0.6 0.1
v 0.1 0.6 0
v 0.1 0.6 -0.1
v 0.1 0.7 0
v 0.1 0.7 -0.1
v 0.1 0.8 0.1
v 0.1 0.8 0
v 0.1 0.8 -0.1
v 0.2 -1 0.2
v 0.2 -1 0.1
v 0.2 -1 -0.1
v 0.2 -1 -0.2
v 0.2 -0.9 0.2
v 0.2 -0.9 0.1
v 0.2 -0.9 0
v 0.2 -0.9 -0.1
v 0.2 -0.9 -0.2
v 0.2 -0.8 0.2
v 0.2 -0.8 0
v 0.2 -0.8 -0.1
v 0.2 -0.8 -0.2
v 0.2 0.8 0.2
v 0.2 0.8 0.1
v 0.2 0.8 0
v 0.2 0.8 -0.2
v 0.2 0.9 0.1
v 0.2 0.9 0
v 0.2 0.9 -0.1
v 0.2 1 0.2
v 0.2 1 0
v 0.2 1 -0.1
v 0.2 1 -0.2
v -0.2 -1 0.2
v -0.2 -0.8 0.2
v -0.2 0.8 0.2
v -0.2 0.9 0.2
v -0.2 1 0.2
v -0.1 -1 0.2
v -0.1 -0.9 0.2
v -0.1 0.8 0.2
v -0.1 0.9 0.2
v -0.1 1 0.2
v 0 0.9 0.2
v 0 1 0.2
v 0.1 0.9 0.2
v 0.1 1 0.2
v 0.2 -1 0.2
v 0.2 -0.9 0.2
v 0.2 -0.8 0.2
v 0.2 0.8 0.2
v 0.2 1 0.2
v -0.1 -0.8 0.1
v -0.1 -0.7 0.1
v -0.1 -0.5 0.1
v -0.1 -0.3 0.1
v -0.1 -0.2 0.1
v -0.1 -0.1 0.1
v -0.1 0 0.1
v -0.1 0.1 0.1
v -0.1 0.2 0.1
v -0.1 0.3 0.1
v -0.1 0.4 0.1
v -0.1 0.5 0.1
v -0.1 0.6 0.1
v -0.1 0.7 0.1
v -0.1 0.8 0.1
v 0 -0.2 0.1
v 0 -0.1 0.1
v 0 0 0.1
v 0 0.1 0.1
v 0 0.2 0.1
v 0 0.3 0.1
v 0 0.4 0.1
v 0 0.5 0.1
v 0 0.6 0.1
v 0 0.7 0.1
v 0.1 -0.8 0.1
v 0.1 -0.7 0.1
v 0.1 -0.5 0.1
v 0.1 -0.3 0.1
v 0.1 -0.2 0.1
v 0.1 -0.1 0.1
v 0.1 0 0.1
v 0.1 0.1 0.1
v 0.1 0.2 0.1
v 0.1 0.4 0.1
v 0.1 0.5 0.1
v 0.1 0.6 0.1
v 0.1 0.8 0.1
v -0.1 -0.8 -0.1
v -0.1 -0.6 -0.1
v -0.1 -0.3 -0.1
v -0.1 -0.2 -0.1
v -0.1 0 -0.1
v -0.1 0.1 -0.1
v -0.1 0.5 -0.1
v -0.1 0.7 -0.1
v -0.1 0.8 -0.1
v 0 -0.7 -0.1
v 0 -0.6 -0.1
v 0 -0.3 -0.1
v 0 -0.2 -0.1
v 0 -0.1 -0.1
v 0 0 -0.1
v 0 0.1 -0.1
v 0 0.2 -0.1
v 0 0.3 -0.1
v 0 0.4 -0.1
v 0 0.5 -0.1
v 0 0.6 -0.1
v 0 0.7 -0.1
v 0 0.8 -0.1
v 0.1 -0.8 -0.1
v 0.1 -0.7 -0.1
v 0.1 -0.6 -0.1
v 0.1 -0.3 -0.1
v 0.1 -0.1 -0.1
v 0.1 0 -0.1
v 0.1 0.2 -0.1
v 0.1 0.3 -0.1
v 0.1 0.4 -0.1
v 0.1 0.5 -0.1
v 0.1 0.6 -0.1
v 0.1 0.7 -0.1
v 0.1 0.8 -0.1
v -0.2 -1 -0.2
v -0.2 -0.9 -0.2
v -0.2 -0.8 -0.2
v -0.2 0.8 -0.2
v -0.2 1 -0.2
v -0.1 -0.9 -0.2
v -0.1 -0.8 -0.2
v -0.1 0.8 -0.2
v -0.1 0.9 -0.2
v 0.1 0.8 -0.2
v 0.1 0.9 -0.2
v 0.2 -1 -0.2
v 0.2 -0.9 -0.2
v 0.2 -0.8 -0.2
v 0.2 0.8 -0.2
v 0.2 1 -0.2
v -0.2 -1 0.2
v -0.1 -1 0.2
v 0.2 -1 0.2
v -0.2 -1 0.1
v -0.1 -1 0.1
v 0.1 -1 0.1
v 0.2 -1 0.1
v 0.1 -1 -0.1
v 0.2 -1 -0.1
v -0.2 -1 -0.2
v 0.2 -1 -0.2
v -0.2 0.8 0.2
v -0.1 0.8 0.2
v 0.2 0.8 0.2
v -0.2 0.8 0.1
v -0.1 0.8 0.1
v 0.1 0.8 0.1
v 0.2 0.8 0.1
v -0.1 0.8 0
v 0.1 0.8 0
v 0.2 0.8 0
v -0.1 0.8 -0.1
v 0 0.8 -0.1
v 0.1 0.8 -0.1
v -0.2 0.8 -0.2
v -0.1 0.8 -0.2
v 0.1 0.8 -0.2
v 0.2 0.8 -0.2
v -0.2 -0.8 0.2
v 0.2 -0.8 0.2
v -0.1 -0.8 0.1
v 0.1 -0.8 0.1
v -0.2 -0.8 0
v -0.1 -0.8 0
v 0.1 -0.8 0
v 0.2 -0.8 0
v -0.1 -0.8 -0.1
v 0.1 -0.8 -0.1
v 0.2 -0.8 -0.1
v -0.2 -0.8 -0.2
v -0.1 -0.8 -0.2
v 0.2 -0.8 -0.2
v -0.2 1 0.2
v -0.1 1 0.2
v 0 1 0.2
v 0.1 1 0.2
v 0.2 1 0.2
v -0.2 1 0.1
v -0.1 1 0.1
v 0 1 0.1
v 0.1 1 0
v 0.2 1 0
v -0.1 1 -0.1
v 0.2 1 -0.1
v -0.2 1 -0.2
v 0.2 1 -0.2

# faces
f 4/7/1 2/7/1 1/7/1
f 4/8/1 3/8/1 2/8/1
f 5/8/1 3/8/1 4/8/1
f 6/8/1 3/8/1 5/8/1
f 7/7/1 4/7/1 1/7/1
f 7/7/1 5/7/1 4/7/1
f 8/4/1 6/4/1 5/4/1
f 8/7/1 5/7/1 7/7/1
f 9/4/1 6/4/1 8/4/1
f 13/4/1 11/4/1 10/4/1
f 14/5/1 12/5/1 11/5/1
f 14/4/1 11/4/1 13/4/1
f 15/8/1 14/8/1 13/8/1
f 16/5/1 12/5/1 14/5/1
f 16/8/1 14/8/1 15/8/1
f 17/5/1 12/5/1 16/5/1
f 21/2/1 19/2/1 18/2/1
f 21/2/1 20/2/1 19/2/1
f 22/2/1 20/2/1 21/2/1
f 23/1/1 22/1/1 21/1/1
f 23/2/1 20/2/1 22/2/1
f 24/2/1 20/2/1 23/2/1
f 25/1/1 23/1/1 21/1/1
f 26/3/1 24/3/1 23/3/1
f 26/1/1 23/1/1 25/1/1
f 27/3/1 26/3/1 25/3/1
f 28/3/1 24/3/1 26/3/1
f 28/3/1 26/3/1 27/3/1
f 29/3/1 24/3/1 28/3/1
f 30/1/1 28/1/1 27/1/1
f 31/2/1 29/2/1 28/2/1
f 31/1/1 28/1/1 30/1/1
f 32/2/1 29/2/1 31/2/1
f 33/3/1 31/3/1 30/3/1
f 33/3/1 32/3/1 31/3/1
f 34/3/1 32/3/1 33/3/1
f 35/1/1 34/1/1 33/1/1
f 36/3/1 32/3/1 34/3/1
f 36/1/1 34/1/1 35/1/1
f 37/3/1 32/3/1 36/3/1
f 38/2/1 36/2/1 35/2/1
f 38/2/1 37/2/1 36/2/1
f 39/2/1 37/2/1 38/2/1
f 40/2/1 37/2/1 39/2/1
f 41/1/1 39/1/1 38/1/1
f 42/3/1 40/3/1 39/3/1
f 42/1/1 39/1/1 41/1/1
f 43/2/1 42/2/1 41/2/1
f 44/3/1 40/3/1 42/3/1
f 44/2/1 42/2/1 43/2/1
f 45/3/1 44/3/1 43/3/1
f 46/3/1 40/3/1 44/3/1
f 46/3/1 44/3/1 45/3/1
f 47/1/1 46/1/1 45/1/1
f 48/3/1 40/3/1 46/3/1
f 48/1/1 46/1/1 47/1/1
f 49/3/1 40/3/1 48/3/1
f 50/3/1 48/3/1 47/3/1
f 51/2/1 49/2/1 48/2/1
f 51/3/1 48/3/1 50/3/1
f 52/2/1 51/2/1 50/2/1
f 53/2/1 49/2/1 51/2/1
f 53/2/1 51/2/1 52/2/1
f 54/2/1 49/2/1 53/2/1
f 55/1/1 53/1/1 52/1/1
f 56/3/1 54/3/1 53/3/1
f 56/1/1 53/1/1 55/1/1
f 57/3/1 54/3/1 56/3/1
f 58/2/2 59/2/2 61/2/2
f 59/2/2 60/2/2 61/2/2
f 61/2/2 60/2/2 62/2/2
f 61/1/2 62/1/2 63/1/2
f 63/1/2 62/1/2 64/1/2
f 61/1/2 63/1/2 65/1/2
f 63/3/2 64/3/2 66/3/2
f 65/1/2 63/1/2 66/1/2
f 65/3/2 66/3/2 67/3/2
f 66/3/2 64/3/2 68/3/2
f 67/3/2 66/3/2 68/3/2
f 67/1/2 68/1/2 69/1/2
f 69/1/2 68/1/2 70/1/2
f 69/2/2 70/2/2 71/2/2
f 70/1/2 68/1/2 72/1/2
f 71/2/2 70/2/2 72/2/2
f 72/1/2 68/1/2 73/1/2
f 71/3/2 72/3/2 74/3/2
f 72/3/2 73/3/2 74/3/2
f 74/3/2 73/3/2 75/3/2
f 74/1/2 75/1/2 76/1/2
f 76/1/2 75/1/2 77/1/2
f 76/3/2 77/3/2 78/3/2
f 77/1/2 75/1/2 79/1/2
f 78/3/2 77/3/2 79/3/2
f 79/1/2 75/1/2 80/1/2
f 78/2/2 79/2/2 81/2/2
f 79/2/2 80/2/2 81/2/2
f 81/2/2 80/2/2 82/2/2
f 78/2/2 81/2/2 83/2/2
f 81/1/2 82/1/2 84/1/2
f 83/2/2 81/2/2 84/2/2
f 84/1/2 82/1/2 85/1/2
f 83/1/2 84/1/2 86/1/2
f 84/3/2 85/3/2 87/3/2
f 86/1/2 84/1/2 87/1/2
f 87/3/2 85/3/2 88/3/2
f 86/2/2 87/2/2 89/2/2
f 87/1/2 88/1/2 90/1/2
f 89/2/2 87/2/2 90/2/2
f 90/1/2 88/1/2 91/1/2
f 89/1/2 90/1/2 92/1/2
f 90/2/2 91/2/2 92/2/2
f 92/2/2 91/2/2 93/2/2
f 89/1/2 92/1/2 94/1/2
f 92/1/2 93/1/2 94/1/2
f 94/1/2 93/1/2 95/1/2
f 95/1/2 93/1/2 96/1/2
f 97/8/2 98/8/2 101/8/2
f 98/7/2 99/7/2 102/7/2
f 101/8/2 98/8/2 102/8/2
f 102/7/2 99/7/2 103/7/2
f 99/8/2 100/8/2 104/8/2
f 103/7/2 99/7/2 104/7/2
f 104/8/2 100/8/2 105/8/2
f 102/7/2 103/7/2 106/7/2
f 101/7/2 102/7/2 106/7/2
f 103/4/2 104/4/2 107/4/2
f 106/7/2 103/7/2 107/7/2
f 104/7/2 105/7/2 108/7/2
f 107/4/2 104/4/2 108/4/2
f 108/7/2 105/7/2 109/7/2
f 110/5/2 111/5/2 114/5/2
f 111/4/2 112/4/2 114/4/2
f 112/5/2 113/5/2 115/5/2
f 114/4/2 112/4/2 115/4/2
f 115/5/2 113/5/2 116/5/2
f 110/5/2 114/5/2 117/5/2
f 114/5/2 115/5/2 117/5/2
f 115/8/2 116/8/2 118/8/2
f 117/5/2 115/5/2 118/5/2
f 116/5/2 113/5/2 119/5/2
f 118/8/2 116/8/2 119/8/2
f 119/5/2 113/5/2 120/5/2
f 126/7/3 122/7/3 121/7/3
f 127/7/3 122/7/3 126/7/3
f 128/4/3 124/4/3 123/4/3
f 129/8/3 125/8/3 124/8/3
f 129/4/3 124/4/3 128/4/3
f 130/8/3 125/8/3 129/8/3
f 131/5/3 129/5/3 128/5/3
f 131/5/3 130/5/3 129/5/3
f 132/5/3 130/5/3 131/5/3
f 133/5/3 131/5/3 128/5/3
f 133/8/3 132/8/3 131/8/3
f 134/8/3 132/8/3 133/8/3
f 135/8/3 127/8/3 126/8/3
f 136/7/3 122/7/3 127/7/3
f 136/8/3 127/8/3 135/8/3
f 137/7/3 122/7/3 136/7/3
f 138/5/3 133/5/3 128/5/3
f 138/5/3 134/5/3 133/5/3
f 139/5/3 134/5/3 138/5/3
f 155/1/3 144/1/3 143/1/3
f 155/3/3 145/3/3 144/3/3
f 156/1/3 146/1/3 145/1/3
f 156/3/3 145/3/3 155/3/3
f 157/2/3 147/2/3 146/2/3
f 157/1/3 146/1/3 156/1/3
f 158/1/3 148/1/3 147/1/3
f 158/2/3 147/2/3 157/2/3
f 159/2/3 149/2/3 148/2/3
f 159/1/3 148/1/3 158/1/3
f 160/3/3 150/3/3 149/3/3
f 160/2/3 149/2/3 159/2/3
f 161/1/3 151/1/3 150/1/3
f 161/3/3 150/3/3 160/3/3
f 162/3/3 152/3/3 151/3/3
f 162/1/3 151/1/3 161/1/3
f 163/2/3 153/2/3 152/2/3
f 163/3/3 152/3/3 162/3/3
f 164/1/3 154/1/3 153/1/3
f 164/2/3 153/2/3 163/2/3
f 165/2/3 141/2/3 140/2/3
f 166/1/3 142/1/3 141/1/3
f 166/2/3 141/2/3 165/2/3
f 167/3/3 143/3/3 142/3/3
f 167/1/3 142/1/3 166/1/3
f 168/1/3 155/1/3 143/1/3
f 168/3/3 143/3/3 167/3/3
f 169/2/3 156/2/3 155/2/3
f 169/1/3 155/1/3 168/1/3
f 170/3/3 157/3/3 156/3/3
f 170/2/3 156/2/3 169/2/3
f 171/1/3 158/1/3 157/1/3
f 171/3/3 157/3/3 170/3/3
f 172/3/3 159/3/3 158/3/3
f 172/1/3 158/1/3 171/1/3
f 173/2/3 160/2/3 159/2/3
f 173/3/3 159/3/3 172/3/3
f 173/2/3 161/2/3 160/2/3
f 174/1/3 162/1/3 161/1/3
f 174/2/3 161/2/3 173/2/3
f 175/2/3 163/2/3 162/2/3
f 175/1/3 162/1/3 174/1/3
f 176/1/3 164/1/3 163/1/3
f 176/2/3 163/2/3 175/2/3
f 177/1/3 154/1/3 164/1/3
f 177/1/3 164/1/3 176/1/3
f 178/2/4 179/2/4 187/2/4
f 179/3/4 180/3/4 188/3/4
f 187/2/4 179/2/4 188/2/4
f 180/2/4 181/2/4 189/2/4
f 188/3/4 180/3/4 189/3/4
f 181/3/4 182/3/4 190/3/4
f 189/2/4 181/2/4 190/2/4
f 190/3/4 182/3/4 191/3/4
f 182/2/4 183/2/4 192/2/4
f 191/3/4 182/3/4 192/3/4
f 183/3/4 184/3/4 193/3/4
f 192/2/4 183/2/4 193/2/4
f 193/3/4 184/3/4 194/3/4
f 194/3/4 184/3/4 195/3/4
f 195/3/4 184/3/4 196/3/4
f 184/2/4 185/2/4 197/2/4
f 196/3/4 184/3/4 197/3/4
f 197/2/4 185/2/4 198/2/4
f 185/3/4 186/3/4 199/3/4
f 198/2/4 185/2/4 199/2/4
f 199/3/4 186/3/4 200/3/4
f 178/2/4 187/2/4 201/2/4
f 187/1/4 188/1/4 202/1/4
f 201/2/4 187/2/4 202/2/4
f 188/3/4 189/3/4 203/3/4
f 202/1/4 188/1/4 203/1/4
f 190/1/4 191/1/4 204/1/4
f 203/3/4 189/3/4 204/3/4
f 189/1/4 190/1/4 204/1/4
f 191/3/4 192/3/4 205/3/4
f 204/1/4 191/1/4 205/1/4
f 192/1/4 193/1/4 206/1/4
f 205/3/4 192/3/4 206/3/4
f 193/1/4 194/1/4 206/1/4
f 194/2/4 195/2/4 207/2/4
f 206/1/4 194/1/4 207/1/4
f 195/1/4 196/1/4 208/1/4
f 207/2/4 195/2/4 208/2/4
f 196/3/4 197/3/4 209/3/4
f 208/1/4 196/1/4 209/1/4
f 197/1/4 198/1/4 210/1/4
f 209/3/4 197/3/4 210/3/4
f 198/2/4 199/2/4 211/2/4
f 210/1/4 198/1/4 211/1/4
f 199/1/4 200/1/4 212/1/4
f 211/2/4 199/2/4 212/2/4
f 212/1/4 200/1/4 213/1/4
f 214/8/4 215/8/4 219/8/4
f 215/4/4 216/4/4 219/4/4
f 219/4/4 216/4/4 220/4/4
f 217/5/4 218/5/4 221/5/4
f 221/5/4 218/5/4 222/5/4
f 221/4/4 222/4/4 223/4/4
f 222/5/4 218/5/4 224/5/4
f 223/4/4 222/4/4 224/4/4
f 214/8/4 219/8/4 225/8/4
f 219/7/4 220/7/4 226/7/4
f 225/8/4 219/8/4 226/8/4
f 226/7/4 220/7/4 227/7/4
f 223/5/4 224/5/4 228/5/4
f 224/5/4 218/5/4 229/5/4
f 228/5/4 224/5/4 229/5/4
f 233/7/5 231/7/5 230/7/5
f 234/8/5 232/8/5 231/8/5
f 234/7/5 231/7/5 233/7/5
f 235/8/5 232/8/5 234/8/5
f 236/8/5 232/8/5 235/8/5
f 237/8/5 234/8/5 233/8/5
f 237/8/5 235/8/5 234/8/5
f 237/7/5 236/7/5 235/7/5
f 238/7/5 236/7/5 237/7/5
f 239/8/5 237/8/5 233/8/5
f 239/8/5 238/8/5 237/8/5
f 240/8/5 238/8/5 239/8/5
f 244/4/5 242/4/5 241/4/5
f 245/5/5 243/5/5 242/5/5
f 245/4/5 242/4/5 244/4/5
f 246/5/5 243/5/5 245/5/5
f 247/5/5 243/5/5 246/5/5
f 248/5/5 245/5/5 244/5/5
f 249/4/5 247/4/5 246/4/5
f 250/4/5 247/4/5 249/4/5
f 251/5/5 248/5/5 244/5/5
f 253/5/5 250/5/5 249/5/5
f 254/5/5 251/5/5 244/5/5
f 255/4/5 252/4/5 251/4/5
f 255/5/5 251/5/5 254/5/5
f 255/4/5 253/4/5 252/4/5
f 256/5/5 250/5/5 253/5/5
f 256/4/5 253/4/5 255/4/5
f 257/5/5 250/5/5 256/5/5
f 258/7/6 259/7/6 260/7/6
f 260/7/6 259/7/6 261/7/6
f 258/7/6 260/7/6 262/7/6
f 262/7/6 260/7/6 263/7/6
f 261/7/6 259/7/6 264/7/6
f 264/7/6 259/7/6 265/7/6
f 262/4/6 263/4/6 266/4/6
f 264/4/6 265/4/6 267/4/6
f 267/4/6 265/4/6 268/4/6
f 262/4/6 266/4/6 269/4/6
f 266/7/6 267/7/6 270/7/6
f 269/4/6 266/4/6 270/4/6
f 267/7/6 268/7/6 270/7/6
f 270/7/6 268/7/6 271/7/6
f 272/8/6 273/8/6 277/8/6
f 273/5/6 274/5/6 278/5/6
f 277/8/6 273/8/6 278/8/6
f 274/8/6 275/8/6 279/8/6
f 278/5/6 274/5/6 279/5/6
f 275/5/6 276/5/6 280/5/6
f 279/8/6 275/8/6 280/8/6
f 278/8/6 279/8/6 280/8/6
f 280/5/6 276/5/6 281/5/6
f 277/5/6 278/5/6 282/5/6
f 278/8/6 280/8/6 282/8/6
f 280/8/6 281/8/6 282/8/6
f 282/8/6 281/8/6 283/8/6
f 277/5/6 282/5/6 284/5/6
f 282/5/6 283/5/6 284/5/6
f 284/5/6 283/5/6 285/5/6
