# MagicaVoxel @ Ephtracy

# group
o 

# material
mtllib wall_door_arch.mtl
usemtl palette

# normals
vn -1 0 0
vn 1 0 0
vn 0 0 1
vn 0 0 -1
vn 0 -1 0
vn 0 1 0

# texcoords
vt 0.0957031 0.5
vt 0.103516 0.5
vt 0.107422 0.5
vt 0.123047 0.5
vt 0.439453 0.5
vt 0.451172 0.5
vt 0.466797 0.5

# verts
v -0.2 0.3 0.5
v -0.2 0.3 0.3
v -0.2 0.3 0.2
v -0.2 0.3 0.1
v -0.2 0.3 -0.1
v -0.2 0.3 -0.4
v -0.2 0.3 -0.5
v -0.2 0.4 0.5
v -0.2 0.4 0.3
v -0.2 0.4 0.2
v -0.2 0.4 0.1
v -0.2 0.4 -0.1
v -0.2 0.4 -0.4
v -0.2 0.5 0.5
v -0.2 0.5 -0.5
v -0.1 -0.5 0.5
v -0.1 -0.5 0.4
v -0.1 -0.5 -0.4
v -0.1 -0.5 -0.5
v -0.1 -0.4 0.5
v -0.1 -0.4 0.4
v -0.1 -0.4 -0.4
v -0.1 -0.4 -0.5
v -0.1 -0.3 0.5
v -0.1 -0.3 0.4
v -0.1 -0.2 0.5
v -0.1 -0.2 0.4
v -0.1 -0.1 0.4
v -0.1 -0.1 0.3
v -0.1 -0.1 -0.3
v -0.1 -0.1 -0.4
v -0.1 -0.1 -0.5
v -0.1 0 0.5
v -0.1 0 0.4
v -0.1 0 0.3
v -0.1 0 -0.3
v -0.1 0 -0.5
v -0.1 0.1 0.5
v -0.1 0.1 0.4
v -0.1 0.1 0.3
v -0.1 0.1 0.2
v -0.1 0.1 -0.2
v -0.1 0.1 -0.3
v -0.1 0.1 -0.5
v -0.1 0.2 0.5
v -0.1 0.2 0.2
v -0.1 0.2 -0.2
v -0.1 0.2 -0.5
v -0.1 0.3 0.5
v -0.1 0.3 0.3
v -0.1 0.3 0.2
v -0.1 0.3 0.1
v -0.1 0.3 -0.1
v -0.1 0.3 -0.4
v -0.1 0.3 -0.5
v 0.1 -0.5 0.5
v 0.1 -0.5 0.4
v 0.1 -0.5 -0.4
v 0.1 -0.5 -0.5
v 0.1 -0.4 0.5
v 0.1 -0.4 0.4
v 0.1 -0.4 -0.4
v 0.1 -0.4 -0.5
v 0.1 -0.3 0.5
v 0.1 -0.3 0.4
v 0.1 -0.2 0.5
v 0.1 -0.2 0.4
v 0.1 -0.2 -0.4
v 0.1 -0.2 -0.5
v 0.1 -0.1 0.5
v 0.1 -0.1 0.4
v 0.1 -0.1 0.3
v 0.1 -0.1 -0.3
v 0.1 -0.1 -0.4
v 0.1 -0.1 -0.5
v 0.1 0 0.5
v 0.1 0 0.4
v 0.1 0 0.3
v 0.1 0.1 0.4
v 0.1 0.1 0.3
v 0.1 0.1 0.2
v 0.1 0.1 -0.2
v 0.1 0.1 -0.3
v 0.1 0.1 -0.5
v 0.1 0.2 0.5
v 0.1 0.2 0.2
v 0.1 0.2 -0.2
v 0.1 0.2 -0.5
v 0.1 0.3 0.5
v 0.1 0.3 0.3
v 0.1 0.3 0
v 0.1 0.3 -0.5
v 0.2 0.3 0.5
v 0.2 0.3 0.3
v 0.2 0.3 0
v 0.2 0.3 -0.5
v 0.2 0.4 0.5
v 0.2 0.4 0.3
v 0.2 0.4 0.2
v 0.2 0.4 0.1
v 0.2 0.4 0
v 0.2 0.4 -0.5
v 0.2 0.5 0.5
v 0.2 0.5 0.2
v 0.2 0.5 0.1
v 0.2 0.5 -0.5
v -0.2 0.3 0.5
v -0.2 0.4 0.5
v -0.2 0.5 0.5
v -0.1 -0.5 0.5
v -0.1 -0.4 0.5
v -0.1 -0.3 0.5
v -0.1 -0.2 0.5
v -0.1 0 0.5
v -0.1 0.1 0.5
v -0.1 0.2 0.5
v -0.1 0.3 0.5
v -0.1 0.4 0.5
v -0.1 0.5 0.5
v 0 -0.3 0.5
v 0 -0.2 0.5
v 0 -0.1 0.5
v 0 0.1 0.5
v 0 0.2 0.5
v 0 0.3 0.5
v 0 0.4 0.5
v 0 0.5 0.5
v 0.1 -0.5 0.5
v 0.1 -0.4 0.5
v 0.1 -0.3 0.5
v 0.1 -0.2 0.5
v 0.1 -0.1 0.5
v 0.1 0 0.5
v 0.1 0.2 0.5
v 0.1 0.3 0.5
v 0.1 0.4 0.5
v 0.2 0.3 0.5
v 0.2 0.4 0.5
v 0.2 0.5 0.5
v -0.1 0.1 -0.2
v -0.1 0.2 -0.2
v 0 0.1 -0.2
v 0 0.2 -0.2
v 0.1 0.1 -0.2
v 0.1 0.2 -0.2
v -0.1 -0.1 -0.3
v -0.1 0 -0.3
v -0.1 0.1 -0.3
v 0 -0.1 -0.3
v 0 0 -0.3
v 0 0.1 -0.3
v 0.1 -0.1 -0.3
v 0.1 0.1 -0.3
v -0.1 -0.5 -0.4
v -0.1 -0.4 -0.4
v -0.1 -0.1 -0.4
v 0 -0.5 -0.4
v 0 -0.4 -0.4
v 0 -0.2 -0.4
v 0 -0.1 -0.4
v 0.1 -0.5 -0.4
v 0.1 -0.4 -0.4
v 0.1 -0.2 -0.4
v 0.1 -0.1 -0.4
v -0.1 -0.5 0.4
v -0.1 -0.4 0.4
v -0.1 -0.3 0.4
v -0.1 -0.2 0.4
v -0.1 -0.1 0.4
v 0 -0.3 0.4
v 0 -0.2 0.4
v 0 -0.1 0.4
v 0.1 -0.5 0.4
v 0.1 -0.4 0.4
v 0.1 -0.3 0.4
v 0.1 -0.2 0.4
v 0.1 -0.1 0.4
v -0.1 -0.1 0.3
v -0.1 0 0.3
v -0.1 0.1 0.3
v 0 0.1 0.3
v 0.1 -0.1 0.3
v 0.1 0 0.3
v 0.1 0.1 0.3
v -0.1 0.1 0.2
v -0.1 0.2 0.2
v 0 0.1 0.2
v 0 0.2 0.2
v 0.1 0.1 0.2
v 0.1 0.2 0.2
v -0.2 0.3 -0.5
v -0.2 0.5 -0.5
v -0.1 -0.5 -0.5
v -0.1 -0.4 -0.5
v -0.1 -0.1 -0.5
v -0.1 0 -0.5
v -0.1 0.1 -0.5
v -0.1 0.2 -0.5
v -0.1 0.3 -0.5
v -0.1 0.4 -0.5
v -0.1 0.5 -0.5
v 0 -0.5 -0.5
v 0 -0.4 -0.5
v 0 -0.2 -0.5
v 0 -0.1 -0.5
v 0 0 -0.5
v 0 0.1 -0.5
v 0 0.2 -0.5
v 0 0.3 -0.5
v 0 0.4 -0.5
v 0 0.5 -0.5
v 0.1 -0.5 -0.5
v 0.1 -0.4 -0.5
v 0.1 -0.2 -0.5
v 0.1 -0.1 -0.5
v 0.1 0.1 -0.5
v 0.1 0.2 -0.5
v 0.1 0.3 -0.5
v 0.2 0.3 -0.5
v 0.2 0.4 -0.5
v 0.2 0.5 -0.5
v -0.1 -0.5 0.5
v 0.1 -0.5 0.5
v -0.1 -0.5 0.4
v 0.1 -0.5 0.4
v -0.1 -0.5 -0.4
v 0 -0.5 -0.4
v 0.1 -0.5 -0.4
v -0.1 -0.5 -0.5
v 0 -0.5 -0.5
v 0.1 -0.5 -0.5
v -0.1 -0.1 0.4
v 0 -0.1 0.4
v 0.1 -0.1 0.4
v -0.1 -0.1 0.3
v 0.1 -0.1 0.3
v -0.1 -0.1 -0.3
v 0 -0.1 -0.3
v 0.1 -0.1 -0.3
v -0.1 -0.1 -0.4
v 0 -0.1 -0.4
v 0.1 -0.1 -0.4
v -0.1 0.1 0.3
v 0 0.1 0.3
v 0.1 0.1 0.3
v -0.1 0.1 0.2
v 0 0.1 0.2
v 0.1 0.1 0.2
v -0.1 0.1 -0.2
v 0 0.1 -0.2
v 0.1 0.1 -0.2
v -0.1 0.1 -0.3
v 0 0.1 -0.3
v 0.1 0.1 -0.3
v -0.1 0.2 0.2
v 0 0.2 0.2
v 0.1 0.2 0.2
v -0.1 0.2 -0.2
v 0 0.2 -0.2
v 0.1 0.2 -0.2
v -0.2 0.3 0.5
v -0.1 0.3 0.5
v 0.1 0.3 0.5
v 0.2 0.3 0.5
v -0.2 0.3 0.3
v -0.1 0.3 0.3
v 0.1 0.3 0.3
v 0.2 0.3 0.3
v -0.2 0.3 0.2
v -0.1 0.3 0.2
v -0.2 0.3 0.1
v -0.1 0.3 0.1
v 0.1 0.3 0
v 0.2 0.3 0
v -0.2 0.3 -0.1
v -0.1 0.3 -0.1
v -0.2 0.3 -0.4
v -0.1 0.3 -0.4
v -0.2 0.3 -0.5
v -0.1 0.3 -0.5
v 0.1 0.3 -0.5
v 0.2 0.3 -0.5
v -0.2 0.5 0.5
v -0.1 0.5 0.5
v 0 0.5 0.5
v 0.2 0.5 0.5
v 0 0.5 0.4
v 0.1 0.5 0.4
v -0.1 0.5 0.2
v 0.1 0.5 0.2
v 0.2 0.5 0.2
v 0 0.5 0.1
v 0.1 0.5 0.1
v 0.2 0.5 0.1
v 0 0.5 0
v 0.1 0.5 0
v -0.1 0.5 -0.2
v 0.1 0.5 -0.2
v -0.1 0.5 -0.3
v 0 0.5 -0.3
v -0.1 0.5 -0.4
v 0 0.5 -0.4
v 0.1 0.5 -0.4
v -0.2 0.5 -0.5
v -0.1 0.5 -0.5
v 0 0.5 -0.5
v 0.2 0.5 -0.5

# faces
f 8/5/1 2/5/1 1/5/1
f 9/6/1 3/6/1 2/6/1
f 9/5/1 2/5/1 8/5/1
f 10/5/1 4/5/1 3/5/1
f 10/6/1 3/6/1 9/6/1
f 11/6/1 5/6/1 4/6/1
f 11/5/1 4/5/1 10/5/1
f 12/5/1 6/5/1 5/5/1
f 12/6/1 5/6/1 11/6/1
f 13/6/1 7/6/1 6/6/1
f 13/5/1 6/5/1 12/5/1
f 14/6/1 12/6/1 11/6/1
f 14/6/1 9/6/1 8/6/1
f 14/6/1 13/6/1 12/6/1
f 14/6/1 11/6/1 10/6/1
f 14/6/1 10/6/1 9/6/1
f 15/6/1 7/6/1 13/6/1
f 15/6/1 13/6/1 14/6/1
f 20/4/1 17/4/1 16/4/1
f 21/4/1 17/4/1 20/4/1
f 22/2/1 19/2/1 18/2/1
f 23/2/1 19/2/1 22/2/1
f 24/1/1 21/1/1 20/1/1
f 25/1/1 21/1/1 24/1/1
f 26/3/1 25/3/1 24/3/1
f 27/3/1 25/3/1 26/3/1
f 28/4/1 27/4/1 26/4/1
f 31/4/1 23/4/1 22/4/1
f 32/4/1 23/4/1 31/4/1
f 33/4/1 28/4/1 26/4/1
f 34/1/1 29/1/1 28/1/1
f 34/4/1 28/4/1 33/4/1
f 35/1/1 29/1/1 34/1/1
f 36/1/1 31/1/1 30/1/1
f 36/1/1 32/1/1 31/1/1
f 37/1/1 32/1/1 36/1/1
f 38/1/1 34/1/1 33/1/1
f 39/4/1 35/4/1 34/4/1
f 39/1/1 34/1/1 38/1/1
f 40/4/1 35/4/1 39/4/1
f 43/4/1 37/4/1 36/4/1
f 44/4/1 37/4/1 43/4/1
f 45/4/1 41/4/1 40/4/1
f 45/4/1 39/4/1 38/4/1
f 45/4/1 40/4/1 39/4/1
f 46/4/1 41/4/1 45/4/1
f 47/1/1 44/1/1 43/1/1
f 47/1/1 43/1/1 42/1/1
f 48/1/1 44/1/1 47/1/1
f 49/3/1 46/3/1 45/3/1
f 49/3/1 47/3/1 46/3/1
f 49/3/1 48/3/1 47/3/1
f 50/3/1 48/3/1 49/3/1
f 51/3/1 48/3/1 50/3/1
f 52/3/1 48/3/1 51/3/1
f 53/3/1 48/3/1 52/3/1
f 54/3/1 48/3/1 53/3/1
f 55/3/1 48/3/1 54/3/1
f 56/4/2 57/4/2 60/4/2
f 60/4/2 57/4/2 61/4/2
f 58/1/2 59/1/2 62/1/2
f 62/1/2 59/1/2 63/1/2
f 60/1/2 61/1/2 64/1/2
f 64/1/2 61/1/2 65/1/2
f 64/4/2 65/4/2 66/4/2
f 66/4/2 65/4/2 67/4/2
f 62/4/2 63/4/2 68/4/2
f 68/4/2 63/4/2 69/4/2
f 66/1/2 67/1/2 70/1/2
f 70/1/2 67/1/2 71/1/2
f 68/1/2 69/1/2 74/1/2
f 74/1/2 69/1/2 75/1/2
f 70/4/2 71/4/2 76/4/2
f 71/1/2 72/1/2 77/1/2
f 76/4/2 71/4/2 77/4/2
f 77/1/2 72/1/2 78/1/2
f 76/1/2 77/1/2 79/1/2
f 77/4/2 78/4/2 79/4/2
f 79/4/2 78/4/2 80/4/2
f 73/3/2 74/3/2 83/3/2
f 74/3/2 75/3/2 83/3/2
f 83/3/2 75/3/2 84/3/2
f 80/1/2 81/1/2 85/1/2
f 76/1/2 79/1/2 85/1/2
f 79/1/2 80/1/2 85/1/2
f 85/1/2 81/1/2 86/1/2
f 83/4/2 84/4/2 87/4/2
f 82/4/2 83/4/2 87/4/2
f 87/4/2 84/4/2 88/4/2
f 85/3/2 86/3/2 89/3/2
f 86/3/2 87/3/2 89/3/2
f 87/3/2 88/3/2 89/3/2
f 89/3/2 88/3/2 90/3/2
f 90/3/2 88/3/2 91/3/2
f 91/3/2 88/3/2 92/3/2
f 93/5/2 94/5/2 97/5/2
f 94/6/2 95/6/2 98/6/2
f 97/5/2 94/5/2 98/5/2
f 98/6/2 95/6/2 99/6/2
f 99/6/2 95/6/2 100/6/2
f 95/5/2 96/5/2 101/5/2
f 100/6/2 95/6/2 101/6/2
f 101/5/2 96/5/2 102/5/2
f 97/6/2 98/6/2 103/6/2
f 98/6/2 99/6/2 103/6/2
f 99/7/2 100/7/2 104/7/2
f 103/6/2 99/6/2 104/6/2
f 101/6/2 102/6/2 105/6/2
f 104/7/2 100/7/2 105/7/2
f 100/6/2 101/6/2 105/6/2
f 105/6/2 102/6/2 106/6/2
f 117/5/3 108/5/3 107/5/3
f 118/6/3 109/6/3 108/6/3
f 118/5/3 108/5/3 117/5/3
f 119/6/3 109/6/3 118/6/3
f 120/1/3 112/1/3 111/1/3
f 120/3/3 113/3/3 112/3/3
f 121/4/3 114/4/3 113/4/3
f 121/3/3 113/3/3 120/3/3
f 122/4/3 114/4/3 121/4/3
f 123/4/3 116/4/3 115/4/3
f 123/1/3 115/1/3 114/1/3
f 124/3/3 117/3/3 116/3/3
f 124/4/3 116/4/3 123/4/3
f 125/5/3 118/5/3 117/5/3
f 125/3/3 117/3/3 124/3/3
f 126/7/3 119/7/3 118/7/3
f 126/5/3 118/5/3 125/5/3
f 127/7/3 119/7/3 126/7/3
f 128/4/3 111/4/3 110/4/3
f 129/1/3 120/1/3 111/1/3
f 129/4/3 111/4/3 128/4/3
f 130/4/3 121/4/3 120/4/3
f 130/1/3 120/1/3 129/1/3
f 131/1/3 122/1/3 121/1/3
f 131/4/3 121/4/3 130/4/3
f 132/4/3 114/4/3 122/4/3
f 132/1/3 122/1/3 131/1/3
f 133/1/3 123/1/3 114/1/3
f 133/4/3 114/4/3 132/4/3
f 133/1/3 124/1/3 123/1/3
f 134/3/3 125/3/3 124/3/3
f 134/1/3 124/1/3 133/1/3
f 135/6/3 127/6/3 126/6/3
f 135/3/3 125/3/3 134/3/3
f 135/6/3 126/6/3 125/6/3
f 136/6/3 127/6/3 135/6/3
f 137/5/3 136/5/3 135/5/3
f 138/6/3 127/6/3 136/6/3
f 138/5/3 136/5/3 137/5/3
f 139/6/3 127/6/3 138/6/3
f 142/1/3 141/1/3 140/1/3
f 143/1/3 141/1/3 142/1/3
f 144/4/3 143/4/3 142/4/3
f 145/4/3 143/4/3 144/4/3
f 149/1/3 147/1/3 146/1/3
f 150/4/3 148/4/3 147/4/3
f 150/1/3 147/1/3 149/1/3
f 151/4/3 148/4/3 150/4/3
f 152/3/3 150/3/3 149/3/3
f 152/3/3 151/3/3 150/3/3
f 153/3/3 151/3/3 152/3/3
f 157/2/3 155/2/3 154/2/3
f 158/4/3 156/4/3 155/4/3
f 158/2/3 155/2/3 157/2/3
f 159/4/3 156/4/3 158/4/3
f 160/4/3 156/4/3 159/4/3
f 161/1/3 158/1/3 157/1/3
f 162/4/3 159/4/3 158/4/3
f 162/1/3 158/1/3 161/1/3
f 163/1/3 160/1/3 159/1/3
f 163/4/3 159/4/3 162/4/3
f 164/1/3 160/1/3 163/1/3
f 166/1/4 167/1/4 170/1/4
f 167/3/4 168/3/4 170/3/4
f 168/4/4 169/4/4 171/4/4
f 170/3/4 168/3/4 171/3/4
f 171/4/4 169/4/4 172/4/4
f 165/4/4 166/4/4 173/4/4
f 166/1/4 170/1/4 174/1/4
f 173/4/4 166/4/4 174/4/4
f 170/4/4 171/4/4 175/4/4
f 174/1/4 170/1/4 175/1/4
f 171/1/4 172/1/4 176/1/4
f 175/4/4 171/4/4 176/4/4
f 176/1/4 172/1/4 177/1/4
f 179/4/4 180/4/4 181/4/4
f 178/1/4 179/1/4 182/1/4
f 179/4/4 181/4/4 183/4/4
f 182/1/4 179/1/4 183/1/4
f 183/4/4 181/4/4 184/4/4
f 185/4/4 186/4/4 187/4/4
f 187/4/4 186/4/4 188/4/4
f 187/1/4 188/1/4 189/1/4
f 189/1/4 188/1/4 190/1/4
f 191/6/4 192/6/4 199/6/4
f 199/6/4 192/6/4 200/6/4
f 200/6/4 192/6/4 201/6/4
f 193/2/4 194/2/4 202/2/4
f 194/4/4 195/4/4 203/4/4
f 202/2/4 194/2/4 203/2/4
f 203/4/4 195/4/4 204/4/4
f 195/1/4 196/1/4 205/1/4
f 204/4/4 195/4/4 205/4/4
f 196/4/4 197/4/4 206/4/4
f 205/1/4 196/1/4 206/1/4
f 197/1/4 198/1/4 207/1/4
f 206/4/4 197/4/4 207/4/4
f 198/3/4 199/3/4 208/3/4
f 207/1/4 198/1/4 208/1/4
f 199/6/4 200/6/4 209/6/4
f 208/3/4 199/3/4 209/3/4
f 200/7/4 201/7/4 210/7/4
f 209/6/4 200/6/4 210/6/4
f 210/7/4 201/7/4 211/7/4
f 202/1/4 203/1/4 212/1/4
f 203/4/4 204/4/4 213/4/4
f 212/1/4 203/1/4 213/1/4
f 204/1/4 205/1/4 214/1/4
f 213/4/4 204/4/4 214/4/4
f 205/3/4 206/3/4 215/3/4
f 214/1/4 205/1/4 215/1/4
f 206/3/4 207/3/4 215/3/4
f 207/4/4 208/4/4 216/4/4
f 215/3/4 207/3/4 216/3/4
f 208/3/4 209/3/4 217/3/4
f 216/4/4 208/4/4 217/4/4
f 209/5/4 210/5/4 218/5/4
f 217/3/4 209/3/4 218/3/4
f 218/5/4 210/5/4 219/5/4
f 210/6/4 211/6/4 220/6/4
f 219/5/4 210/5/4 220/5/4
f 220/6/4 211/6/4 221/6/4
f 224/4/5 223/4/5 222/4/5
f 225/4/5 223/4/5 224/4/5
f 229/2/5 227/2/5 226/2/5
f 230/1/5 228/1/5 227/1/5
f 230/2/5 227/2/5 229/2/5
f 231/1/5 228/1/5 230/1/5
f 235/1/5 233/1/5 232/1/5
f 235/1/5 234/1/5 233/1/5
f 236/1/5 234/1/5 235/1/5
f 240/1/5 238/1/5 237/1/5
f 241/3/5 239/3/5 238/3/5
f 241/1/5 238/1/5 240/1/5
f 242/3/5 239/3/5 241/3/5
f 246/4/5 244/4/5 243/4/5
f 247/1/5 245/1/5 244/1/5
f 247/4/5 244/4/5 246/4/5
f 248/1/5 245/1/5 247/1/5
f 252/1/5 250/1/5 249/1/5
f 253/4/5 251/4/5 250/4/5
f 253/1/5 250/1/5 252/1/5
f 254/4/5 251/4/5 253/4/5
f 258/3/5 256/3/5 255/3/5
f 258/3/5 257/3/5 256/3/5
f 259/3/5 257/3/5 258/3/5
f 260/3/5 257/3/5 259/3/5
f 265/5/5 262/5/5 261/5/5
f 266/5/5 262/5/5 265/5/5
f 267/5/5 264/5/5 263/5/5
f 268/5/5 264/5/5 267/5/5
f 269/6/5 266/6/5 265/6/5
f 270/6/5 266/6/5 269/6/5
f 271/5/5 270/5/5 269/5/5
f 272/5/5 270/5/5 271/5/5
f 273/6/5 268/6/5 267/6/5
f 274/6/5 268/6/5 273/6/5
f 275/6/5 272/6/5 271/6/5
f 276/6/5 272/6/5 275/6/5
f 277/5/5 276/5/5 275/5/5
f 278/5/5 276/5/5 277/5/5
f 279/6/5 278/6/5 277/6/5
f 280/6/5 278/6/5 279/6/5
f 281/5/5 274/5/5 273/5/5
f 282/5/5 274/5/5 281/5/5
f 284/7/6 285/7/6 287/7/6
f 285/6/6 286/6/6 287/6/6
f 287/6/6 286/6/6 288/6/6
f 283/6/6 284/6/6 289/6/6
f 284/7/6 287/7/6 289/7/6
f 287/7/6 288/7/6 289/7/6
f 288/6/6 286/6/6 290/6/6
f 289/7/6 288/7/6 290/7/6
f 290/6/6 286/6/6 291/6/6
f 289/6/6 290/6/6 292/6/6
f 290/7/6 291/7/6 293/7/6
f 292/6/6 290/6/6 293/6/6
f 293/7/6 291/7/6 294/7/6
f 289/6/6 292/6/6 295/6/6
f 292/7/6 293/7/6 295/7/6
f 293/6/6 294/6/6 296/6/6
f 295/7/6 293/7/6 296/7/6
f 283/6/6 289/6/6 297/6/6
f 289/6/6 295/6/6 297/6/6
f 295/6/6 296/6/6 297/6/6
f 296/6/6 294/6/6 298/6/6
f 297/6/6 296/6/6 298/6/6
f 283/6/6 297/6/6 299/6/6
f 297/7/6 298/7/6 299/7/6
f 299/7/6 298/7/6 300/7/6
f 283/6/6 299/6/6 301/6/6
f 299/6/6 300/6/6 301/6/6
f 300/7/6 298/7/6 302/7/6
f 301/6/6 300/6/6 302/6/6
f 298/6/6 294/6/6 303/6/6
f 302/7/6 298/7/6 303/7/6
f 283/6/6 301/6/6 304/6/6
f 301/7/6 302/7/6 305/7/6
f 304/6/6 301/6/6 305/6/6
f 302/6/6 303/6/6 306/6/6
f 305/7/6 302/7/6 306/7/6
f 303/6/6 294/6/6 307/6/6
f 306/6/6 303/6/6 307/6/6
